<svg width="108" height="12" viewBox="0 0 108 12" fill="none" xmlns="http://www.w3.org/2000/svg">
<path d="M11.1233 4.58886C11.0846 4.46592 11.0099 4.35737 10.909 4.27717C10.8081 4.19698 10.6855 4.14881 10.557 4.13886L7.76983 3.89792C7.75298 3.89626 7.73688 3.89007 7.72327 3.88C7.70965 3.86993 7.69901 3.85636 7.69249 3.84073L6.60358 1.24573C6.55315 1.12735 6.46903 1.02641 6.36169 0.955459C6.25434 0.884508 6.12851 0.84668 5.99983 0.84668C5.87116 0.84668 5.74532 0.884508 5.63798 0.955459C5.53063 1.02641 5.44651 1.12735 5.39608 1.24573L4.30717 3.84073C4.30065 3.85636 4.29001 3.86993 4.2764 3.88C4.26278 3.89007 4.24669 3.89626 4.22983 3.89792L1.44264 4.13886C1.31413 4.14881 1.19154 4.19698 1.09063 4.27717C0.989719 4.35737 0.915108 4.46592 0.876394 4.58886C0.835392 4.71198 0.831811 4.84448 0.866102 4.96964C0.900394 5.09479 0.971019 5.20696 1.06905 5.29198L3.18358 7.13651C3.19653 7.14802 3.20615 7.16279 3.21142 7.17928C3.2167 7.19577 3.21745 7.21338 3.21358 7.23026L2.57796 9.97292C2.54833 10.0992 2.55678 10.2314 2.60225 10.3529C2.64772 10.4744 2.72816 10.5796 2.83342 10.6554C2.93705 10.7319 3.06122 10.7755 3.1899 10.7807C3.31858 10.7859 3.44586 10.7524 3.5553 10.6845L5.95108 9.23136C5.96516 9.22264 5.9814 9.21803 5.99796 9.21803C6.01452 9.21803 6.03075 9.22264 6.04483 9.23136L8.44061 10.6845C8.55119 10.7522 8.67934 10.7856 8.8089 10.7805C8.93846 10.7755 9.06361 10.7322 9.16857 10.656C9.27352 10.5799 9.35358 10.4744 9.39863 10.3528C9.44368 10.2313 9.45171 10.0991 9.42171 9.97292L8.78796 7.22933C8.78409 7.21245 8.78484 7.19484 8.79011 7.17834C8.79539 7.16185 8.80501 7.14708 8.81796 7.13558L10.9325 5.29105C11.03 5.20588 11.1002 5.09376 11.1341 4.96881C11.1681 4.84387 11.1643 4.71167 11.1233 4.58886ZM10.5608 4.86636L8.44624 6.71089C8.35614 6.78929 8.28914 6.89078 8.25247 7.00444C8.21579 7.1181 8.21083 7.23962 8.23811 7.35589L8.87186 10.0995C8.87655 10.1179 8.87551 10.1373 8.8689 10.1552C8.86228 10.173 8.8504 10.1884 8.83483 10.1993C8.82074 10.2106 8.80341 10.2171 8.78537 10.2179C8.76732 10.2186 8.74951 10.2136 8.73452 10.2035L6.33874 8.75042C6.23659 8.68834 6.11936 8.6555 5.99983 8.6555C5.8803 8.6555 5.76307 8.68834 5.66092 8.75042L3.26514 10.2035C3.25015 10.2136 3.23234 10.2186 3.2143 10.2179C3.19625 10.2171 3.17893 10.2106 3.16483 10.1993C3.14926 10.1884 3.13738 10.173 3.13076 10.1552C3.12415 10.1373 3.12312 10.1179 3.1278 10.0995L3.76155 7.35589C3.78883 7.23962 3.78387 7.1181 3.7472 7.00444C3.71052 6.89078 3.64352 6.78929 3.55342 6.71089L1.43889 4.86636C1.42443 4.85406 1.41405 4.83766 1.40911 4.81933C1.40417 4.801 1.40491 4.7816 1.41124 4.7637C1.41597 4.74588 1.42624 4.73001 1.44055 4.71839C1.45487 4.70677 1.47251 4.69998 1.49093 4.69901L4.27858 4.45808C4.39792 4.44791 4.51221 4.40527 4.60905 4.33479C4.70589 4.26431 4.78159 4.16867 4.82796 4.05823L5.91686 1.46323C5.92443 1.44713 5.93643 1.43351 5.95146 1.42397C5.96648 1.41443 5.98391 1.40937 6.00171 1.40937C6.0195 1.40937 6.03693 1.41443 6.05196 1.42397C6.06698 1.43351 6.07898 1.44713 6.08655 1.46323L7.17171 4.05823C7.21792 4.16841 7.29334 4.26387 7.38982 4.33433C7.48631 4.40479 7.60019 4.44758 7.71921 4.45808L10.5069 4.69901C10.5253 4.69998 10.5429 4.70677 10.5572 4.71839C10.5716 4.73001 10.5818 4.74588 10.5865 4.7637C10.5931 4.78142 10.5941 4.8007 10.5895 4.81902C10.5849 4.83733 10.5749 4.85384 10.5608 4.86636Z" fill="#FFC61B"/>
<path d="M10.5608 4.86636L8.44624 6.71089C8.35614 6.78929 8.28914 6.89078 8.25247 7.00444C8.21579 7.1181 8.21083 7.23962 8.23811 7.35589L8.87186 10.0995C8.87655 10.1179 8.87551 10.1373 8.8689 10.1552C8.86228 10.173 8.8504 10.1884 8.83483 10.1993C8.82074 10.2106 8.80341 10.2171 8.78537 10.2179C8.76732 10.2186 8.74951 10.2136 8.73452 10.2035L6.33874 8.75042C6.23659 8.68834 6.11936 8.6555 5.99983 8.6555C5.8803 8.6555 5.76307 8.68834 5.66092 8.75042L3.26514 10.2035C3.25015 10.2136 3.23234 10.2186 3.2143 10.2179C3.19625 10.2171 3.17893 10.2106 3.16483 10.1993C3.14926 10.1884 3.13738 10.173 3.13076 10.1552C3.12415 10.1373 3.12312 10.1179 3.1278 10.0995L3.76155 7.35589C3.78883 7.23962 3.78387 7.1181 3.7472 7.00444C3.71052 6.89078 3.64352 6.78929 3.55342 6.71089L1.43889 4.86636C1.42443 4.85406 1.41405 4.83766 1.40911 4.81933C1.40417 4.801 1.40491 4.7816 1.41124 4.7637C1.41597 4.74588 1.42624 4.73001 1.44055 4.71839C1.45487 4.70677 1.47251 4.69998 1.49093 4.69901L4.27858 4.45808C4.39792 4.44791 4.51221 4.40527 4.60905 4.33479C4.70589 4.26431 4.78159 4.16867 4.82796 4.05823L5.91686 1.46323C5.92443 1.44713 5.93643 1.43351 5.95146 1.42397C5.96648 1.41443 5.98391 1.40937 6.00171 1.40937C6.0195 1.40937 6.03693 1.41443 6.05196 1.42397C6.06698 1.43351 6.07898 1.44713 6.08655 1.46323L7.17171 4.05823C7.21792 4.16841 7.29334 4.26387 7.38982 4.33433C7.48631 4.40479 7.60019 4.44758 7.71921 4.45808L10.5069 4.69901C10.5253 4.69998 10.5429 4.70677 10.5572 4.71839C10.5716 4.73001 10.5818 4.74588 10.5865 4.7637C10.5931 4.78142 10.5941 4.8007 10.5895 4.81902C10.5849 4.83733 10.5749 4.85384 10.5608 4.86636Z" fill="#FFC61B"/>
<path d="M35.1242 4.5891C35.0855 4.46616 35.0109 4.35761 34.91 4.27742C34.8091 4.19722 34.6865 4.14905 34.558 4.1391L31.7708 3.89817C31.754 3.89651 31.7379 3.89032 31.7242 3.88025C31.7106 3.87018 31.7 3.85661 31.6935 3.84098L30.6046 1.24598C30.5541 1.1276 30.47 1.02665 30.3627 0.955703C30.2553 0.884752 30.1295 0.846924 30.0008 0.846924C29.8721 0.846924 29.7463 0.884752 29.639 0.955703C29.5316 1.02665 29.4475 1.1276 29.3971 1.24598L28.3082 3.84098C28.3016 3.85661 28.291 3.87018 28.2774 3.88025C28.2638 3.89032 28.2477 3.89651 28.2308 3.89817L25.4436 4.1391C25.3151 4.14905 25.1925 4.19722 25.0916 4.27742C24.9907 4.35761 24.9161 4.46616 24.8774 4.5891C24.8364 4.71222 24.8328 4.84473 24.8671 4.96988C24.9014 5.09503 24.972 5.20721 25.07 5.29223L27.1846 7.13676C27.1975 7.14826 27.2071 7.16303 27.2124 7.17952C27.2177 7.19602 27.2184 7.21363 27.2146 7.23051L26.5789 9.97317C26.5493 10.0994 26.5578 10.2317 26.6032 10.3531C26.6487 10.4746 26.7291 10.5799 26.8344 10.6557C26.938 10.7321 27.0622 10.7758 27.1909 10.7809C27.3196 10.7861 27.4468 10.7526 27.5563 10.6847L29.9521 9.2316C29.9661 9.22289 29.9824 9.21827 29.9989 9.21827C30.0155 9.21827 30.0317 9.22289 30.0458 9.2316L32.4416 10.6847C32.5522 10.7524 32.6803 10.7859 32.8099 10.7808C32.9394 10.7757 33.0646 10.7324 33.1695 10.6563C33.2745 10.5802 33.3546 10.4747 33.3996 10.3531C33.4447 10.2315 33.4527 10.0993 33.4227 9.97317L32.7889 7.22957C32.7851 7.21269 32.7858 7.19508 32.7911 7.17859C32.7964 7.16209 32.806 7.14732 32.8189 7.13582L34.9335 5.29129C35.031 5.20612 35.1011 5.09401 35.1351 4.96906C35.169 4.84411 35.1653 4.71191 35.1242 4.5891ZM34.5617 4.8666L32.4472 6.71113C32.3571 6.78953 32.2901 6.89103 32.2534 7.00469C32.2168 7.11835 32.2118 7.23986 32.2391 7.35613L32.8728 10.0997C32.8775 10.1182 32.8765 10.1376 32.8699 10.1554C32.8633 10.1733 32.8514 10.1887 32.8358 10.1996C32.8217 10.2109 32.8044 10.2174 32.7863 10.2181C32.7683 10.2189 32.7505 10.2139 32.7355 10.2038L30.3397 8.75066C30.2376 8.68858 30.1203 8.65575 30.0008 8.65575C29.8813 8.65575 29.764 8.68858 29.6619 8.75066L27.2661 10.2038C27.2511 10.2139 27.2333 10.2189 27.2153 10.2181C27.1972 10.2174 27.1799 10.2109 27.1658 10.1996C27.1502 10.1887 27.1384 10.1733 27.1317 10.1554C27.1251 10.1376 27.1241 10.1182 27.1288 10.0997L27.7625 7.35613C27.7898 7.23986 27.7848 7.11835 27.7482 7.00469C27.7115 6.89103 27.6445 6.78953 27.5544 6.71113L25.4399 4.8666C25.4254 4.8543 25.415 4.8379 25.4101 4.81957C25.4051 4.80124 25.4059 4.78185 25.4122 4.76395C25.4169 4.74612 25.4272 4.73026 25.4415 4.71863C25.4558 4.70701 25.4735 4.70023 25.4919 4.69926L28.2796 4.45832C28.3989 4.44815 28.5132 4.40552 28.61 4.33504C28.7069 4.26455 28.7826 4.16891 28.8289 4.05848L29.9178 1.46348C29.9254 1.44737 29.9374 1.43375 29.9524 1.42421C29.9675 1.41468 29.9849 1.40961 30.0027 1.40961C30.0205 1.40961 30.0379 1.41468 30.0529 1.42421C30.068 1.43375 30.08 1.44737 30.0875 1.46348L31.1727 4.05848C31.2189 4.16865 31.2943 4.26411 31.3908 4.33458C31.4873 4.40504 31.6012 4.44782 31.7202 4.45832L34.5078 4.69926C34.5263 4.70023 34.5439 4.70701 34.5582 4.71863C34.5725 4.73026 34.5828 4.74612 34.5875 4.76395C34.5941 4.78166 34.5951 4.80094 34.5905 4.81926C34.5859 4.83758 34.5759 4.85408 34.5617 4.8666Z" fill="#FFC61B"/>
<path d="M34.5617 4.8666L32.4472 6.71113C32.3571 6.78953 32.2901 6.89103 32.2534 7.00469C32.2168 7.11835 32.2118 7.23986 32.2391 7.35613L32.8728 10.0997C32.8775 10.1182 32.8765 10.1376 32.8699 10.1554C32.8633 10.1733 32.8514 10.1887 32.8358 10.1996C32.8217 10.2109 32.8044 10.2174 32.7863 10.2181C32.7683 10.2189 32.7505 10.2139 32.7355 10.2038L30.3397 8.75066C30.2376 8.68858 30.1203 8.65575 30.0008 8.65575C29.8813 8.65575 29.764 8.68858 29.6619 8.75066L27.2661 10.2038C27.2511 10.2139 27.2333 10.2189 27.2153 10.2181C27.1972 10.2174 27.1799 10.2109 27.1658 10.1996C27.1502 10.1887 27.1384 10.1733 27.1317 10.1554C27.1251 10.1376 27.1241 10.1182 27.1288 10.0997L27.7625 7.35613C27.7898 7.23986 27.7848 7.11835 27.7482 7.00469C27.7115 6.89103 27.6445 6.78953 27.5544 6.71113L25.4399 4.8666C25.4254 4.8543 25.415 4.8379 25.4101 4.81957C25.4051 4.80124 25.4059 4.78185 25.4122 4.76395C25.4169 4.74612 25.4272 4.73026 25.4415 4.71863C25.4558 4.70701 25.4735 4.70023 25.4919 4.69926L28.2796 4.45832C28.3989 4.44815 28.5132 4.40552 28.61 4.33504C28.7069 4.26455 28.7826 4.16891 28.8289 4.05848L29.9178 1.46348C29.9254 1.44737 29.9374 1.43375 29.9524 1.42421C29.9675 1.41468 29.9849 1.40961 30.0027 1.40961C30.0205 1.40961 30.0379 1.41468 30.0529 1.42421C30.068 1.43375 30.08 1.44737 30.0875 1.46348L31.1727 4.05848C31.2189 4.16865 31.2943 4.26411 31.3908 4.33458C31.4873 4.40504 31.6012 4.44782 31.7202 4.45832L34.5078 4.69926C34.5263 4.70023 34.5439 4.70701 34.5582 4.71863C34.5725 4.73026 34.5828 4.74612 34.5875 4.76395C34.5941 4.78166 34.5951 4.80094 34.5905 4.81926C34.5859 4.83758 34.5759 4.85408 34.5617 4.8666Z" fill="#FFC61B"/>
<path d="M59.1242 4.5891C59.0855 4.46616 59.0109 4.35761 58.91 4.27742C58.8091 4.19722 58.6865 4.14905 58.558 4.1391L55.7708 3.89817C55.754 3.89651 55.7379 3.89032 55.7242 3.88025C55.7106 3.87018 55.7 3.85661 55.6935 3.84098L54.6046 1.24598C54.5541 1.1276 54.47 1.02665 54.3627 0.955703C54.2553 0.884752 54.1295 0.846924 54.0008 0.846924C53.8721 0.846924 53.7463 0.884752 53.639 0.955703C53.5316 1.02665 53.4475 1.1276 53.3971 1.24598L52.3082 3.84098C52.3016 3.85661 52.291 3.87018 52.2774 3.88025C52.2638 3.89032 52.2477 3.89651 52.2308 3.89817L49.4436 4.1391C49.3151 4.14905 49.1925 4.19722 49.0916 4.27742C48.9907 4.35761 48.9161 4.46616 48.8774 4.5891C48.8364 4.71222 48.8328 4.84473 48.8671 4.96988C48.9014 5.09503 48.972 5.20721 49.07 5.29223L51.1846 7.13676C51.1975 7.14826 51.2071 7.16303 51.2124 7.17952C51.2177 7.19602 51.2184 7.21363 51.2146 7.23051L50.5789 9.97317C50.5493 10.0994 50.5578 10.2317 50.6032 10.3531C50.6487 10.4746 50.7291 10.5799 50.8344 10.6557C50.938 10.7321 51.0622 10.7758 51.1909 10.7809C51.3196 10.7861 51.4468 10.7526 51.5563 10.6847L53.9521 9.2316C53.9661 9.22289 53.9824 9.21827 53.9989 9.21827C54.0155 9.21827 54.0317 9.22289 54.0458 9.2316L56.4416 10.6847C56.5522 10.7524 56.6803 10.7859 56.8099 10.7808C56.9394 10.7757 57.0646 10.7324 57.1695 10.6563C57.2745 10.5802 57.3546 10.4747 57.3996 10.3531C57.4447 10.2315 57.4527 10.0993 57.4227 9.97317L56.7889 7.22957C56.7851 7.21269 56.7858 7.19508 56.7911 7.17859C56.7964 7.16209 56.806 7.14732 56.8189 7.13582L58.9335 5.29129C59.031 5.20612 59.1011 5.09401 59.1351 4.96906C59.169 4.84411 59.1653 4.71191 59.1242 4.5891ZM58.5617 4.8666L56.4472 6.71113C56.3571 6.78953 56.2901 6.89103 56.2534 7.00469C56.2168 7.11835 56.2118 7.23986 56.2391 7.35613L56.8728 10.0997C56.8775 10.1182 56.8765 10.1376 56.8699 10.1554C56.8633 10.1733 56.8514 10.1887 56.8358 10.1996C56.8217 10.2109 56.8044 10.2174 56.7863 10.2181C56.7683 10.2189 56.7505 10.2139 56.7355 10.2038L54.3397 8.75066C54.2376 8.68858 54.1203 8.65575 54.0008 8.65575C53.8813 8.65575 53.764 8.68858 53.6619 8.75066L51.2661 10.2038C51.2511 10.2139 51.2333 10.2189 51.2153 10.2181C51.1972 10.2174 51.1799 10.2109 51.1658 10.1996C51.1502 10.1887 51.1384 10.1733 51.1317 10.1554C51.1251 10.1376 51.1241 10.1182 51.1288 10.0997L51.7625 7.35613C51.7898 7.23986 51.7848 7.11835 51.7482 7.00469C51.7115 6.89103 51.6445 6.78953 51.5544 6.71113L49.4399 4.8666C49.4254 4.8543 49.415 4.8379 49.4101 4.81957C49.4051 4.80124 49.4059 4.78185 49.4122 4.76395C49.4169 4.74612 49.4272 4.73026 49.4415 4.71863C49.4558 4.70701 49.4735 4.70023 49.4919 4.69926L52.2796 4.45832C52.3989 4.44815 52.5132 4.40552 52.61 4.33504C52.7069 4.26455 52.7826 4.16891 52.8289 4.05848L53.9178 1.46348C53.9254 1.44737 53.9374 1.43375 53.9524 1.42421C53.9675 1.41468 53.9849 1.40961 54.0027 1.40961C54.0205 1.40961 54.0379 1.41468 54.0529 1.42421C54.068 1.43375 54.08 1.44737 54.0875 1.46348L55.1727 4.05848C55.2189 4.16865 55.2943 4.26411 55.3908 4.33458C55.4873 4.40504 55.6012 4.44782 55.7202 4.45832L58.5078 4.69926C58.5263 4.70023 58.5439 4.70701 58.5582 4.71863C58.5725 4.73026 58.5828 4.74612 58.5875 4.76395C58.5941 4.78166 58.5951 4.80094 58.5905 4.81926C58.5859 4.83758 58.5759 4.85408 58.5617 4.8666Z" fill="#FFC61B"/>
<path d="M58.5617 4.8666L56.4472 6.71113C56.3571 6.78953 56.2901 6.89103 56.2534 7.00469C56.2168 7.11835 56.2118 7.23986 56.2391 7.35613L56.8728 10.0997C56.8775 10.1182 56.8765 10.1376 56.8699 10.1554C56.8633 10.1733 56.8514 10.1887 56.8358 10.1996C56.8217 10.2109 56.8044 10.2174 56.7863 10.2181C56.7683 10.2189 56.7505 10.2139 56.7355 10.2038L54.3397 8.75066C54.2376 8.68858 54.1203 8.65575 54.0008 8.65575C53.8813 8.65575 53.764 8.68858 53.6619 8.75066L51.2661 10.2038C51.2511 10.2139 51.2333 10.2189 51.2153 10.2181C51.1972 10.2174 51.1799 10.2109 51.1658 10.1996C51.1502 10.1887 51.1384 10.1733 51.1317 10.1554C51.1251 10.1376 51.1241 10.1182 51.1288 10.0997L51.7625 7.35613C51.7898 7.23986 51.7848 7.11835 51.7482 7.00469C51.7115 6.89103 51.6445 6.78953 51.5544 6.71113L49.4399 4.8666C49.4254 4.8543 49.415 4.8379 49.4101 4.81957C49.4051 4.80124 49.4059 4.78185 49.4122 4.76395C49.4169 4.74612 49.4272 4.73026 49.4415 4.71863C49.4558 4.70701 49.4735 4.70023 49.4919 4.69926L52.2796 4.45832C52.3989 4.44815 52.5132 4.40552 52.61 4.33504C52.7069 4.26455 52.7826 4.16891 52.8289 4.05848L53.9178 1.46348C53.9254 1.44737 53.9374 1.43375 53.9524 1.42421C53.9675 1.41468 53.9849 1.40961 54.0027 1.40961C54.0205 1.40961 54.0379 1.41468 54.0529 1.42421C54.068 1.43375 54.08 1.44737 54.0875 1.46348L55.1727 4.05848C55.2189 4.16865 55.2943 4.26411 55.3908 4.33458C55.4873 4.40504 55.6012 4.44782 55.7202 4.45832L58.5078 4.69926C58.5263 4.70023 58.5439 4.70701 58.5582 4.71863C58.5725 4.73026 58.5828 4.74612 58.5875 4.76395C58.5941 4.78166 58.5951 4.80094 58.5905 4.81926C58.5859 4.83758 58.5759 4.85408 58.5617 4.8666Z" fill="#FFC61B"/>
<path d="M83.1242 4.5891C83.0855 4.46616 83.0109 4.35761 82.91 4.27742C82.8091 4.19722 82.6865 4.14905 82.558 4.1391L79.7708 3.89817C79.754 3.89651 79.7379 3.89032 79.7242 3.88025C79.7106 3.87018 79.7 3.85661 79.6935 3.84098L78.6046 1.24598C78.5541 1.1276 78.47 1.02665 78.3627 0.955703C78.2553 0.884752 78.1295 0.846924 78.0008 0.846924C77.8721 0.846924 77.7463 0.884752 77.639 0.955703C77.5316 1.02665 77.4475 1.1276 77.3971 1.24598L76.3082 3.84098C76.3016 3.85661 76.291 3.87018 76.2774 3.88025C76.2638 3.89032 76.2477 3.89651 76.2308 3.89817L73.4436 4.1391C73.3151 4.14905 73.1925 4.19722 73.0916 4.27742C72.9907 4.35761 72.9161 4.46616 72.8774 4.5891C72.8364 4.71222 72.8328 4.84473 72.8671 4.96988C72.9014 5.09503 72.972 5.20721 73.07 5.29223L75.1846 7.13676C75.1975 7.14826 75.2071 7.16303 75.2124 7.17952C75.2177 7.19602 75.2184 7.21363 75.2146 7.23051L74.5789 9.97317C74.5493 10.0994 74.5578 10.2317 74.6032 10.3531C74.6487 10.4746 74.7291 10.5799 74.8344 10.6557C74.938 10.7321 75.0622 10.7758 75.1909 10.7809C75.3196 10.7861 75.4468 10.7526 75.5563 10.6847L77.9521 9.2316C77.9661 9.22289 77.9824 9.21827 77.9989 9.21827C78.0155 9.21827 78.0317 9.22289 78.0458 9.2316L80.4416 10.6847C80.5522 10.7524 80.6803 10.7859 80.8099 10.7808C80.9394 10.7757 81.0646 10.7324 81.1695 10.6563C81.2745 10.5802 81.3546 10.4747 81.3996 10.3531C81.4447 10.2315 81.4527 10.0993 81.4227 9.97317L80.7889 7.22957C80.7851 7.21269 80.7858 7.19508 80.7911 7.17859C80.7964 7.16209 80.806 7.14732 80.8189 7.13582L82.9335 5.29129C83.031 5.20612 83.1011 5.09401 83.1351 4.96906C83.169 4.84411 83.1653 4.71191 83.1242 4.5891ZM82.5617 4.8666L80.4472 6.71113C80.3571 6.78953 80.2901 6.89103 80.2534 7.00469C80.2168 7.11835 80.2118 7.23986 80.2391 7.35613L80.8728 10.0997C80.8775 10.1182 80.8765 10.1376 80.8699 10.1554C80.8633 10.1733 80.8514 10.1887 80.8358 10.1996C80.8217 10.2109 80.8044 10.2174 80.7863 10.2181C80.7683 10.2189 80.7505 10.2139 80.7355 10.2038L78.3397 8.75066C78.2376 8.68858 78.1203 8.65575 78.0008 8.65575C77.8813 8.65575 77.764 8.68858 77.6619 8.75066L75.2661 10.2038C75.2511 10.2139 75.2333 10.2189 75.2153 10.2181C75.1972 10.2174 75.1799 10.2109 75.1658 10.1996C75.1502 10.1887 75.1384 10.1733 75.1317 10.1554C75.1251 10.1376 75.1241 10.1182 75.1288 10.0997L75.7625 7.35613C75.7898 7.23986 75.7848 7.11835 75.7482 7.00469C75.7115 6.89103 75.6445 6.78953 75.5544 6.71113L73.4399 4.8666C73.4254 4.8543 73.415 4.8379 73.4101 4.81957C73.4051 4.80124 73.4059 4.78185 73.4122 4.76395C73.4169 4.74612 73.4272 4.73026 73.4415 4.71863C73.4558 4.70701 73.4735 4.70023 73.4919 4.69926L76.2796 4.45832C76.3989 4.44815 76.5132 4.40552 76.61 4.33504C76.7069 4.26455 76.7826 4.16891 76.8289 4.05848L77.9178 1.46348C77.9254 1.44737 77.9374 1.43375 77.9524 1.42421C77.9675 1.41468 77.9849 1.40961 78.0027 1.40961C78.0205 1.40961 78.0379 1.41468 78.0529 1.42421C78.068 1.43375 78.08 1.44737 78.0875 1.46348L79.1727 4.05848C79.2189 4.16865 79.2943 4.26411 79.3908 4.33458C79.4873 4.40504 79.6012 4.44782 79.7202 4.45832L82.5078 4.69926C82.5263 4.70023 82.5439 4.70701 82.5582 4.71863C82.5725 4.73026 82.5828 4.74612 82.5875 4.76395C82.5941 4.78166 82.5951 4.80094 82.5905 4.81926C82.5859 4.83758 82.5759 4.85408 82.5617 4.8666Z" fill="#FFC61B"/>
<path d="M82.5617 4.8666L80.4472 6.71113C80.3571 6.78953 80.2901 6.89103 80.2534 7.00469C80.2168 7.11835 80.2118 7.23986 80.2391 7.35613L80.8728 10.0997C80.8775 10.1182 80.8765 10.1376 80.8699 10.1554C80.8633 10.1733 80.8514 10.1887 80.8358 10.1996C80.8217 10.2109 80.8044 10.2174 80.7863 10.2181C80.7683 10.2189 80.7505 10.2139 80.7355 10.2038L78.3397 8.75066C78.2376 8.68858 78.1203 8.65575 78.0008 8.65575C77.8813 8.65575 77.764 8.68858 77.6619 8.75066L75.2661 10.2038C75.2511 10.2139 75.2333 10.2189 75.2153 10.2181C75.1972 10.2174 75.1799 10.2109 75.1658 10.1996C75.1502 10.1887 75.1384 10.1733 75.1317 10.1554C75.1251 10.1376 75.1241 10.1182 75.1288 10.0997L75.7625 7.35613C75.7898 7.23986 75.7848 7.11835 75.7482 7.00469C75.7115 6.89103 75.6445 6.78953 75.5544 6.71113L73.4399 4.8666C73.4254 4.8543 73.415 4.8379 73.4101 4.81957C73.4051 4.80124 73.4059 4.78185 73.4122 4.76395C73.4169 4.74612 73.4272 4.73026 73.4415 4.71863C73.4558 4.70701 73.4735 4.70023 73.4919 4.69926L76.2796 4.45832C76.3989 4.44815 76.5132 4.40552 76.61 4.33504C76.7069 4.26455 76.7826 4.16891 76.8289 4.05848L77.9178 1.46348C77.9254 1.44737 77.9374 1.43375 77.9524 1.42421C77.9675 1.41468 77.9849 1.40961 78.0027 1.40961C78.0205 1.40961 78.0379 1.41468 78.0529 1.42421C78.068 1.43375 78.08 1.44737 78.0875 1.46348L79.1727 4.05848C79.2189 4.16865 79.2943 4.26411 79.3908 4.33458C79.4873 4.40504 79.6012 4.44782 79.7202 4.45832L82.5078 4.69926C82.5263 4.70023 82.5439 4.70701 82.5582 4.71863C82.5725 4.73026 82.5828 4.74612 82.5875 4.76395C82.5941 4.78166 82.5951 4.80094 82.5905 4.81926C82.5859 4.83758 82.5759 4.85408 82.5617 4.8666Z" fill="#FFC61B"/>
<path d="M107.124 4.5891C107.086 4.46616 107.011 4.35761 106.91 4.27742C106.809 4.19722 106.687 4.14905 106.558 4.1391L103.771 3.89817C103.754 3.89651 103.738 3.89032 103.724 3.88025C103.711 3.87018 103.7 3.85661 103.693 3.84098L102.605 1.24598C102.554 1.1276 102.47 1.02665 102.363 0.955703C102.255 0.884752 102.129 0.846924 102.001 0.846924C101.872 0.846924 101.746 0.884752 101.639 0.955703C101.532 1.02665 101.447 1.1276 101.397 1.24598L100.308 3.84098C100.302 3.85661 100.291 3.87018 100.277 3.88025C100.264 3.89032 100.248 3.89651 100.231 3.89817L97.4436 4.1391C97.3151 4.14905 97.1925 4.19722 97.0916 4.27742C96.9907 4.35761 96.9161 4.46616 96.8774 4.5891C96.8364 4.71222 96.8328 4.84473 96.8671 4.96988C96.9014 5.09503 96.972 5.20721 97.07 5.29223L99.1846 7.13676C99.1975 7.14826 99.2071 7.16303 99.2124 7.17952C99.2177 7.19602 99.2184 7.21363 99.2146 7.23051L98.5789 9.97317C98.5493 10.0994 98.5578 10.2317 98.6032 10.3531C98.6487 10.4746 98.7291 10.5799 98.8344 10.6557C98.938 10.7321 99.0622 10.7758 99.1909 10.7809C99.3196 10.7861 99.4468 10.7526 99.5563 10.6847L101.952 9.2316C101.966 9.22289 101.982 9.21827 101.999 9.21827C102.015 9.21827 102.032 9.22289 102.046 9.2316L104.442 10.6847C104.552 10.7524 104.68 10.7859 104.81 10.7808C104.939 10.7757 105.065 10.7324 105.17 10.6563C105.274 10.5802 105.355 10.4747 105.4 10.3531C105.445 10.2315 105.453 10.0993 105.423 9.97317L104.789 7.22957C104.785 7.21269 104.786 7.19508 104.791 7.17859C104.796 7.16209 104.806 7.14732 104.819 7.13582L106.933 5.29129C107.031 5.20612 107.101 5.09401 107.135 4.96906C107.169 4.84411 107.165 4.71191 107.124 4.5891ZM106.562 4.8666L104.447 6.71113C104.357 6.78953 104.29 6.89103 104.253 7.00469C104.217 7.11835 104.212 7.23986 104.239 7.35613L104.873 10.0997C104.878 10.1182 104.876 10.1376 104.87 10.1554C104.863 10.1733 104.851 10.1887 104.836 10.1996C104.822 10.2109 104.804 10.2174 104.786 10.2181C104.768 10.2189 104.75 10.2139 104.735 10.2038L102.34 8.75066C102.238 8.68858 102.12 8.65575 102.001 8.65575C101.881 8.65575 101.764 8.68858 101.662 8.75066L99.2661 10.2038C99.2511 10.2139 99.2333 10.2189 99.2153 10.2181C99.1972 10.2174 99.1799 10.2109 99.1658 10.1996C99.1502 10.1887 99.1384 10.1733 99.1317 10.1554C99.1251 10.1376 99.1241 10.1182 99.1288 10.0997L99.7625 7.35613C99.7898 7.23986 99.7848 7.11835 99.7482 7.00469C99.7115 6.89103 99.6445 6.78953 99.5544 6.71113L97.4399 4.8666C97.4254 4.8543 97.415 4.8379 97.4101 4.81957C97.4051 4.80124 97.4059 4.78185 97.4122 4.76395C97.4169 4.74612 97.4272 4.73026 97.4415 4.71863C97.4558 4.70701 97.4735 4.70023 97.4919 4.69926L100.28 4.45832C100.399 4.44815 100.513 4.40552 100.61 4.33504C100.707 4.26455 100.783 4.16891 100.829 4.05848L101.918 1.46348C101.925 1.44737 101.937 1.43375 101.952 1.42421C101.967 1.41468 101.985 1.40961 102.003 1.40961C102.02 1.40961 102.038 1.41468 102.053 1.42421C102.068 1.43375 102.08 1.44737 102.088 1.46348L103.173 4.05848C103.219 4.16865 103.294 4.26411 103.391 4.33458C103.487 4.40504 103.601 4.44782 103.72 4.45832L106.508 4.69926C106.526 4.70023 106.544 4.70701 106.558 4.71863C106.573 4.73026 106.583 4.74612 106.588 4.76395C106.594 4.78166 106.595 4.80094 106.591 4.81926C106.586 4.83758 106.576 4.85408 106.562 4.8666Z" fill="#D0D0D0"/>
<path d="M106.562 4.8666L104.447 6.71113C104.357 6.78953 104.29 6.89103 104.253 7.00469C104.217 7.11835 104.212 7.23986 104.239 7.35613L104.873 10.0997C104.878 10.1182 104.876 10.1376 104.87 10.1554C104.863 10.1733 104.851 10.1887 104.836 10.1996C104.822 10.2109 104.804 10.2174 104.786 10.2181C104.768 10.2189 104.75 10.2139 104.735 10.2038L102.34 8.75066C102.238 8.68858 102.12 8.65575 102.001 8.65575C101.881 8.65575 101.764 8.68858 101.662 8.75066L99.2661 10.2038C99.2511 10.2139 99.2333 10.2189 99.2153 10.2181C99.1972 10.2174 99.1799 10.2109 99.1658 10.1996C99.1502 10.1887 99.1384 10.1733 99.1317 10.1554C99.1251 10.1376 99.1241 10.1182 99.1288 10.0997L99.7625 7.35613C99.7898 7.23986 99.7848 7.11835 99.7482 7.00469C99.7115 6.89103 99.6445 6.78953 99.5544 6.71113L97.4399 4.8666C97.4254 4.8543 97.415 4.8379 97.4101 4.81957C97.4051 4.80124 97.4059 4.78185 97.4122 4.76395C97.4169 4.74612 97.4272 4.73026 97.4415 4.71863C97.4558 4.70701 97.4735 4.70023 97.4919 4.69926L100.28 4.45832C100.399 4.44815 100.513 4.40552 100.61 4.33504C100.707 4.26455 100.783 4.16891 100.829 4.05848L101.918 1.46348C101.925 1.44737 101.937 1.43375 101.952 1.42421C101.967 1.41468 101.985 1.40961 102.003 1.40961C102.02 1.40961 102.038 1.41468 102.053 1.42421C102.068 1.43375 102.08 1.44737 102.088 1.46348L103.173 4.05848C103.219 4.16865 103.294 4.26411 103.391 4.33458C103.487 4.40504 103.601 4.44782 103.72 4.45832L106.508 4.69926C106.526 4.70023 106.544 4.70701 106.558 4.71863C106.573 4.73026 106.583 4.74612 106.588 4.76395C106.594 4.78166 106.595 4.80094 106.591 4.81926C106.586 4.83758 106.576 4.85408 106.562 4.8666Z" fill="#D0D0D0"/>
<g clip-path="url(#clip0_2033_1884)">
<path d="M107.124 4.58886C107.086 4.46592 107.011 4.35737 106.91 4.27717C106.809 4.19698 106.687 4.14881 106.558 4.13886L103.771 3.89792C103.754 3.89626 103.738 3.89007 103.724 3.88C103.711 3.86993 103.7 3.85636 103.693 3.84073L102.605 1.24573C102.554 1.12735 102.47 1.02641 102.363 0.955459C102.255 0.884508 102.129 0.84668 102.001 0.84668C101.872 0.84668 101.746 0.884508 101.639 0.955459C101.532 1.02641 101.447 1.12735 101.397 1.24573L100.308 3.84073C100.302 3.85636 100.291 3.86993 100.277 3.88C100.264 3.89007 100.248 3.89626 100.231 3.89792L97.4436 4.13886C97.3151 4.14881 97.1925 4.19698 97.0916 4.27717C96.9907 4.35737 96.9161 4.46592 96.8774 4.58886C96.8364 4.71198 96.8328 4.84448 96.8671 4.96964C96.9014 5.09479 96.972 5.20696 97.07 5.29198L99.1846 7.13651C99.1975 7.14802 99.2071 7.16279 99.2124 7.17928C99.2177 7.19577 99.2184 7.21338 99.2146 7.23026L98.5789 9.97292C98.5493 10.0992 98.5578 10.2314 98.6032 10.3529C98.6487 10.4744 98.7291 10.5796 98.8344 10.6554C98.938 10.7319 99.0622 10.7755 99.1909 10.7807C99.3196 10.7859 99.4468 10.7524 99.5563 10.6845L101.952 9.23136C101.966 9.22264 101.982 9.21803 101.999 9.21803C102.015 9.21803 102.032 9.22264 102.046 9.23136L104.442 10.6845C104.552 10.7522 104.68 10.7856 104.81 10.7805C104.939 10.7755 105.065 10.7322 105.17 10.656C105.274 10.5799 105.355 10.4744 105.4 10.3528C105.445 10.2313 105.453 10.0991 105.423 9.97292L104.789 7.22933C104.785 7.21245 104.786 7.19484 104.791 7.17834C104.796 7.16185 104.806 7.14708 104.819 7.13558L106.933 5.29105C107.031 5.20588 107.101 5.09376 107.135 4.96881C107.169 4.84387 107.165 4.71167 107.124 4.58886ZM106.562 4.86636L104.447 6.71089C104.357 6.78929 104.29 6.89078 104.253 7.00444C104.217 7.1181 104.212 7.23962 104.239 7.35589L104.873 10.0995C104.878 10.1179 104.876 10.1373 104.87 10.1552C104.863 10.173 104.851 10.1884 104.836 10.1993C104.822 10.2106 104.804 10.2171 104.786 10.2179C104.768 10.2186 104.75 10.2136 104.735 10.2035L102.34 8.75042C102.238 8.68834 102.12 8.6555 102.001 8.6555C101.881 8.6555 101.764 8.68834 101.662 8.75042L99.2661 10.2035C99.2511 10.2136 99.2333 10.2186 99.2153 10.2179C99.1972 10.2171 99.1799 10.2106 99.1658 10.1993C99.1502 10.1884 99.1384 10.173 99.1317 10.1552C99.1251 10.1373 99.1241 10.1179 99.1288 10.0995L99.7625 7.35589C99.7898 7.23962 99.7848 7.1181 99.7482 7.00444C99.7115 6.89078 99.6445 6.78929 99.5544 6.71089L97.4399 4.86636C97.4254 4.85406 97.415 4.83766 97.4101 4.81933C97.4051 4.801 97.4059 4.7816 97.4122 4.7637C97.4169 4.74588 97.4272 4.73001 97.4415 4.71839C97.4558 4.70677 97.4735 4.69998 97.4919 4.69901L100.28 4.45808C100.399 4.44791 100.513 4.40527 100.61 4.33479C100.707 4.26431 100.783 4.16867 100.829 4.05823L101.918 1.46323C101.925 1.44713 101.937 1.43351 101.952 1.42397C101.967 1.41443 101.985 1.40937 102.003 1.40937C102.02 1.40937 102.038 1.41443 102.053 1.42397C102.068 1.43351 102.08 1.44713 102.088 1.46323L103.173 4.05823C103.219 4.16841 103.294 4.26387 103.391 4.33433C103.487 4.40479 103.601 4.44758 103.72 4.45808L106.508 4.69901C106.526 4.69998 106.544 4.70677 106.558 4.71839C106.573 4.73001 106.583 4.74588 106.588 4.7637C106.594 4.78142 106.595 4.8007 106.591 4.81902C106.586 4.83733 106.576 4.85384 106.562 4.86636Z" fill="#FFC61B"/>
<path d="M106.562 4.86636L104.447 6.71089C104.357 6.78929 104.29 6.89078 104.253 7.00444C104.217 7.1181 104.212 7.23962 104.239 7.35589L104.873 10.0995C104.878 10.1179 104.876 10.1373 104.87 10.1552C104.863 10.173 104.851 10.1884 104.836 10.1993C104.822 10.2106 104.804 10.2171 104.786 10.2179C104.768 10.2186 104.75 10.2136 104.735 10.2035L102.34 8.75042C102.238 8.68834 102.12 8.6555 102.001 8.6555C101.881 8.6555 101.764 8.68834 101.662 8.75042L99.2661 10.2035C99.2511 10.2136 99.2333 10.2186 99.2153 10.2179C99.1972 10.2171 99.1799 10.2106 99.1658 10.1993C99.1502 10.1884 99.1384 10.173 99.1317 10.1552C99.1251 10.1373 99.1241 10.1179 99.1288 10.0995L99.7625 7.35589C99.7898 7.23962 99.7848 7.1181 99.7482 7.00444C99.7115 6.89078 99.6445 6.78929 99.5544 6.71089L97.4399 4.86636C97.4254 4.85406 97.415 4.83766 97.4101 4.81933C97.4051 4.801 97.4059 4.7816 97.4122 4.7637C97.4169 4.74588 97.4272 4.73001 97.4415 4.71839C97.4558 4.70677 97.4735 4.69998 97.4919 4.69901L100.28 4.45808C100.399 4.44791 100.513 4.40527 100.61 4.33479C100.707 4.26431 100.783 4.16867 100.829 4.05823L101.918 1.46323C101.925 1.44713 101.937 1.43351 101.952 1.42397C101.967 1.41443 101.985 1.40937 102.003 1.40937C102.02 1.40937 102.038 1.41443 102.053 1.42397C102.068 1.43351 102.08 1.44713 102.088 1.46323L103.173 4.05823C103.219 4.16841 103.294 4.26387 103.391 4.33433C103.487 4.40479 103.601 4.44758 103.72 4.45808L106.508 4.69901C106.526 4.69998 106.544 4.70677 106.558 4.71839C106.573 4.73001 106.583 4.74588 106.588 4.7637C106.594 4.78142 106.595 4.8007 106.591 4.81902C106.586 4.83733 106.576 4.85384 106.562 4.86636Z" fill="#FFC61B"/>
</g>
<defs>
<clipPath id="clip0_2033_1884">
<rect width="6" height="12" fill="white" transform="translate(96)"/>
</clipPath>
</defs>
</svg>
