<svg width="352" height="40" viewBox="0 0 352 40" fill="none" xmlns="http://www.w3.org/2000/svg">
<path d="M16.6967 31.5596C20.4953 31.5596 23.4844 30.2266 25.3729 27.8531C25.6874 27.4575 25.9717 27.0329 26.224 26.5811C27.1488 24.9237 27.6445 22.8959 27.6445 20.5647V17.5325C26.7745 16.5459 25.6386 15.8231 24.2629 15.3846V20.5647C24.2629 22.0038 24.0286 23.2486 23.5861 24.2991C23.5532 24.3771 23.526 24.4601 23.4909 24.5358C23.2001 25.1609 22.8256 25.7065 22.3773 26.1777C22.3537 26.2026 22.3335 26.2307 22.3095 26.255C21.0278 27.5545 19.1362 28.2356 16.6967 28.2356H10.6517C10.0615 28.2356 9.54345 28.5335 9.24113 28.9839C9.06484 29.2463 8.96094 29.5596 8.96094 29.8975C8.96094 30.3566 9.15022 30.772 9.45615 31.0727C9.76208 31.3735 10.1847 31.5596 10.6517 31.5596H16.6967Z" fill="#9CDB7E"/>
<path d="M12.3423 5.81703V3.82395H15.2758C17.5149 3.82395 19.5374 4.57106 21.0947 5.82318C22.8271 5.8447 24.4774 6.05725 26.0292 6.45327C25.6846 5.86788 25.293 5.31321 24.8536 4.7978C24.4784 4.35757 24.0707 3.945 23.6335 3.5627C23.1962 3.18039 22.7296 2.82835 22.2371 2.51011C20.2661 1.23671 17.8764 0.5 15.2758 0.5H10.6515C10.5478 0.5 10.4473 0.512534 10.3489 0.53003C10.2255 0.552018 10.106 0.583941 9.99345 0.630754C9.87463 0.680168 9.76544 0.745888 9.6625 0.819417C9.23897 1.12157 8.96094 1.60838 8.96094 2.16233V6.13551C9.48501 5.93171 10.0548 5.81751 10.6517 5.81751H12.3423V5.81703Z" fill="#9CDB7E"/>
<path d="M0.423058 38.9271C0.448071 38.9553 0.468515 38.987 0.495211 39.0132C0.80114 39.3139 1.22395 39.5 1.69078 39.5H18.121C22.4699 39.5 26.8801 37.9798 30.2213 35.3289C33.9477 32.3724 36 28.3004 36 23.8626C36 21.8776 35.7078 20.0351 35.1561 18.3676C34.9665 17.7947 34.7426 17.245 34.4932 16.7149C34.3895 16.4946 34.2808 16.2783 34.1673 16.0657C34.0083 15.769 33.8412 15.4787 33.6634 15.1971C33.638 15.1566 33.6144 15.1146 33.5884 15.0744C32.7644 13.8003 31.742 12.6935 30.5517 11.7724C29.6012 11.0367 28.5415 10.4222 27.3854 9.93986C26.186 9.43957 24.8836 9.08186 23.4908 8.88185C22.6277 8.75796 21.7322 8.69082 20.8034 8.69082H19.9034H15.2659H12.3427H10.6519C10.5223 8.69082 10.3972 8.70807 10.276 8.73526C9.55714 8.89627 9.0184 9.50673 8.9715 10.2505C8.96958 10.285 8.96092 10.3177 8.96092 10.3524C8.96092 11.2705 9.7178 12.0147 10.6517 12.0147H14.9405H20.8034C20.9773 12.0147 21.1483 12.0197 21.319 12.0249C22.0425 12.0467 22.739 12.1122 23.4033 12.2242C23.6965 12.2736 23.9815 12.3346 24.2624 12.4011C24.7689 12.5207 25.2579 12.6649 25.724 12.8385C25.9905 12.9378 26.2476 13.0484 26.5003 13.1647C26.6709 13.2432 26.8385 13.3258 27.0028 13.412C27.192 13.5116 27.3772 13.6159 27.5581 13.7253C27.5867 13.7428 27.6163 13.7594 27.6449 13.7773C28.016 14.0071 28.3689 14.258 28.7017 14.5296C28.9555 14.7365 29.1989 14.9543 29.4295 15.1848C29.4343 15.1895 29.4394 15.1938 29.4439 15.1985C29.8571 15.6129 30.2311 16.0667 30.5681 16.5539C30.6145 16.6211 30.6595 16.6889 30.7045 16.7573C30.7535 16.832 30.8026 16.9067 30.8497 16.9831C31.9982 18.8385 32.6184 21.1607 32.6184 23.8624C32.6184 26.6357 31.5585 29.2374 29.5974 31.356C29.145 31.8449 28.6445 32.3081 28.0978 32.7419C25.3471 34.9242 21.7108 36.1758 18.121 36.1758H3.38157V2.36022C3.38157 2.13064 3.33419 1.91219 3.24857 1.71311C2.99194 1.1166 2.39115 0.69812 1.69078 0.69812C1.22395 0.69812 0.80114 0.884194 0.495211 1.18493C0.189283 1.48567 0 1.90107 0 2.36022V37.8379C0 38.1758 0.103899 38.489 0.280192 38.7515C0.322282 38.8144 0.372791 38.8706 0.423058 38.9271Z" fill="#9CDB7E"/>
<path d="M63.792 15.3057V7.89355H69.1973V29.5H63.792V28.3867C62.7178 29.3535 61.4385 29.8467 59.9541 29.8662C57.8936 29.8662 56.1748 29.0996 54.7979 27.5664C53.4111 26.0332 52.7178 24.124 52.7178 21.8389C52.7178 19.5635 53.4111 17.6592 54.7979 16.126C56.1748 14.6025 57.8936 13.8408 59.9541 13.8408C61.4482 13.8408 62.7275 14.3291 63.792 15.3057ZM59.0605 23.8457C59.5684 24.373 60.2275 24.6367 61.0381 24.6367C61.8291 24.6367 62.4883 24.373 63.0156 23.8457C63.5332 23.3086 63.792 22.6445 63.792 21.8535C63.792 21.0625 63.5332 20.3936 63.0156 19.8467C62.4883 19.3193 61.8291 19.0557 61.0381 19.0557C60.2275 19.0557 59.5684 19.3193 59.0605 19.8467C58.5332 20.3838 58.2695 21.0527 58.2695 21.8535C58.2695 22.6543 58.5332 23.3184 59.0605 23.8457ZM77.5908 14.207V15.877C78.6943 14.5977 79.9639 13.958 81.3994 13.958V19.5098C80.1787 19.5098 79.2363 19.7881 78.5723 20.3447C77.918 20.9014 77.5908 21.6729 77.5908 22.6592V29.5H72.1855V14.207H77.5908ZM98.8457 21.9707C98.8457 22.5762 98.8018 23.0449 98.7139 23.377H88.0059C88.4453 24.6562 89.3389 25.2959 90.6865 25.2959C91.1553 25.2959 91.5996 25.208 92.0195 25.0322C92.4492 24.8564 92.7422 24.6465 92.8984 24.4023H98.5674C98.0205 26.0527 97.0293 27.3711 95.5938 28.3574C94.1484 29.3633 92.459 29.8662 90.5254 29.8662C88.1523 29.8662 86.1797 29.0996 84.6074 27.5664C83.0156 26.0332 82.2197 24.124 82.2197 21.8389C82.2197 19.5635 83.0156 17.6592 84.6074 16.126C86.1992 14.6025 88.1719 13.8408 90.5254 13.8408C92.918 13.8408 94.9004 14.6074 96.4727 16.1406C98.0547 17.6836 98.8457 19.627 98.8457 21.9707ZM90.5254 18.3965C89.334 18.3965 88.4941 19.0264 88.0059 20.2861H93.0742C92.8789 19.7002 92.5518 19.2412 92.0928 18.9092C91.6338 18.5674 91.1113 18.3965 90.5254 18.3965ZM111.224 15.3057V14.207H116.629V29.5H111.224V28.3867C110.149 29.3535 108.87 29.8467 107.386 29.8662C105.325 29.8662 103.606 29.0996 102.229 27.5664C100.843 26.0332 100.149 24.124 100.149 21.8389C100.149 19.5635 100.843 17.6592 102.229 16.126C103.606 14.6025 105.325 13.8408 107.386 13.8408C108.88 13.8408 110.159 14.3291 111.224 15.3057ZM106.492 23.8457C107 24.373 107.659 24.6367 108.47 24.6367C109.261 24.6367 109.92 24.373 110.447 23.8457C110.965 23.3086 111.224 22.6445 111.224 21.8535C111.224 21.0625 110.965 20.3936 110.447 19.8467C109.92 19.3193 109.261 19.0557 108.47 19.0557C107.659 19.0557 107 19.3193 106.492 19.8467C105.965 20.3838 105.701 21.0527 105.701 21.8535C105.701 22.6543 105.965 23.3184 106.492 23.8457ZM138.396 13.8408C140.027 13.8408 141.351 14.3486 142.366 15.3643C143.362 16.3896 143.86 17.752 143.86 19.4512V29.5H138.47V21.1064C138.47 20.4912 138.294 19.998 137.942 19.627C137.591 19.2461 137.137 19.0557 136.58 19.0557C135.936 19.0557 135.418 19.251 135.027 19.6416C134.637 20.0322 134.441 20.54 134.441 21.165V29.5H129.036V21.1064C129.036 20.4912 128.86 19.998 128.509 19.627C128.167 19.2461 127.713 19.0557 127.146 19.0557C126.502 19.0557 125.984 19.251 125.594 19.6416C125.213 20.0322 125.022 20.54 125.022 21.165V29.5H119.617V14.207H125.022V15.5254C126.087 14.4023 127.405 13.8408 128.978 13.8408C131.097 13.8408 132.63 14.6318 133.577 16.2139C134.808 14.6318 136.414 13.8408 138.396 13.8408ZM152.151 29.8662C150.325 29.8662 148.792 29.3584 147.552 28.3428C146.321 27.3369 145.706 26.1113 145.706 24.666H151.023C151.023 24.9883 151.136 25.2617 151.36 25.4863C151.595 25.7012 151.878 25.8086 152.21 25.8086C152.513 25.8086 152.762 25.7402 152.957 25.6035C153.162 25.457 153.265 25.2861 153.265 25.0908C153.265 24.5732 152.518 24.1631 151.023 23.8604C147.635 23.2061 145.931 21.5459 145.911 18.8799C145.911 17.2783 146.512 16.0381 147.713 15.1592C148.914 14.2803 150.374 13.8408 152.093 13.8408C153.86 13.8408 155.35 14.3193 156.561 15.2764C157.762 16.2432 158.362 17.415 158.362 18.792H153.03C153.03 18.5283 152.938 18.3135 152.752 18.1475C152.576 17.9717 152.347 17.8838 152.063 17.8838C151.819 17.8838 151.619 17.9473 151.463 18.0742C151.307 18.1914 151.229 18.3379 151.229 18.5137C151.229 19.0215 152.02 19.4414 153.602 19.7734C154.773 20.0176 155.857 20.4521 156.854 21.0771C158.006 21.8193 158.582 22.9961 158.582 24.6074C158.582 26.248 157.967 27.5322 156.736 28.46C155.486 29.3975 153.958 29.8662 152.151 29.8662ZM169.935 13.8408C171.995 13.8408 173.719 14.6025 175.105 16.126C176.482 17.6592 177.171 19.5635 177.171 21.8389C177.171 24.1143 176.482 26.0234 175.105 27.5664C173.719 29.0996 171.995 29.8662 169.935 29.8662C168.45 29.8662 167.171 29.373 166.097 28.3867V35.1982H160.691V14.207H166.097V15.3057C167.161 14.3291 168.44 13.8408 169.935 13.8408ZM166.888 23.8457C167.405 24.373 168.064 24.6367 168.865 24.6367C169.656 24.6367 170.315 24.373 170.843 23.8457C171.36 23.3086 171.619 22.6445 171.619 21.8535C171.619 21.0625 171.36 20.3936 170.843 19.8467C170.315 19.3193 169.656 19.0557 168.865 19.0557C168.064 19.0557 167.405 19.3193 166.888 19.8467C166.36 20.3838 166.097 21.0527 166.097 21.8535C166.097 22.6543 166.36 23.3184 166.888 23.8457ZM189.681 15.3057V14.207H195.086V29.5H189.681V28.3867C188.606 29.3535 187.327 29.8467 185.843 29.8662C183.782 29.8662 182.063 29.0996 180.687 27.5664C179.3 26.0332 178.606 24.124 178.606 21.8389C178.606 19.5635 179.3 17.6592 180.687 16.126C182.063 14.6025 183.782 13.8408 185.843 13.8408C187.337 13.8408 188.616 14.3291 189.681 15.3057ZM184.949 23.8457C185.457 24.373 186.116 24.6367 186.927 24.6367C187.718 24.6367 188.377 24.373 188.904 23.8457C189.422 23.3086 189.681 22.6445 189.681 21.8535C189.681 21.0625 189.422 20.3936 188.904 19.8467C188.377 19.3193 187.718 19.0557 186.927 19.0557C186.116 19.0557 185.457 19.3193 184.949 19.8467C184.422 20.3838 184.158 21.0527 184.158 21.8535C184.158 22.6543 184.422 23.3184 184.949 23.8457ZM205.516 29.8662C203.143 29.8662 201.17 29.0996 199.598 27.5664C198.006 26.0332 197.21 24.124 197.21 21.8389C197.21 19.5635 198.006 17.6592 199.598 16.126C201.189 14.6025 203.162 13.8408 205.516 13.8408C207.713 13.8408 209.583 14.5098 211.126 15.8477C212.679 17.1855 213.562 18.8848 213.777 20.9453H208.167C207.991 20.3887 207.659 19.9346 207.171 19.583C206.683 19.2314 206.131 19.0557 205.516 19.0557C204.715 19.0557 204.056 19.3193 203.538 19.8467C203.021 20.3936 202.762 21.0625 202.762 21.8535C202.762 22.6445 203.021 23.3086 203.538 23.8457C204.056 24.373 204.715 24.6367 205.516 24.6367C206.131 24.6367 206.678 24.4658 207.156 24.124C207.645 23.7725 207.981 23.3135 208.167 22.7471H213.777C213.562 24.8076 212.679 26.5068 211.126 27.8447C209.593 29.1924 207.723 29.8662 205.516 29.8662ZM231.531 21.9707C231.531 22.5762 231.487 23.0449 231.399 23.377H220.691C221.131 24.6562 222.024 25.2959 223.372 25.2959C223.841 25.2959 224.285 25.208 224.705 25.0322C225.135 24.8564 225.428 24.6465 225.584 24.4023H231.253C230.706 26.0527 229.715 27.3711 228.279 28.3574C226.834 29.3633 225.145 29.8662 223.211 29.8662C220.838 29.8662 218.865 29.0996 217.293 27.5664C215.701 26.0332 214.905 24.124 214.905 21.8389C214.905 19.5635 215.701 17.6592 217.293 16.126C218.885 14.6025 220.857 13.8408 223.211 13.8408C225.604 13.8408 227.586 14.6074 229.158 16.1406C230.74 17.6836 231.531 19.627 231.531 21.9707ZM223.211 18.3965C222.02 18.3965 221.18 19.0264 220.691 20.2861H225.76C225.564 19.7002 225.237 19.2412 224.778 18.9092C224.319 18.5674 223.797 18.3965 223.211 18.3965ZM241.053 29.8662C238.68 29.8662 236.707 29.0996 235.135 27.5664C233.543 26.0332 232.747 24.124 232.747 21.8389C232.747 19.5635 233.543 17.6592 235.135 16.126C236.727 14.6025 238.699 13.8408 241.053 13.8408C243.25 13.8408 245.12 14.5098 246.663 15.8477C248.216 17.1855 249.1 18.8848 249.314 20.9453H243.704C243.528 20.3887 243.196 19.9346 242.708 19.583C242.22 19.2314 241.668 19.0557 241.053 19.0557C240.252 19.0557 239.593 19.3193 239.075 19.8467C238.558 20.3936 238.299 21.0625 238.299 21.8535C238.299 22.6445 238.558 23.3086 239.075 23.8457C239.593 24.373 240.252 24.6367 241.053 24.6367C241.668 24.6367 242.215 24.4658 242.693 24.124C243.182 23.7725 243.519 23.3135 243.704 22.7471H249.314C249.1 24.8076 248.216 26.5068 246.663 27.8447C245.13 29.1924 243.26 29.8662 241.053 29.8662ZM256.712 14.207V15.877C257.815 14.5977 259.085 13.958 260.521 13.958V19.5098C259.3 19.5098 258.357 19.7881 257.693 20.3447C257.039 20.9014 256.712 21.6729 256.712 22.6592V29.5H251.307V14.207H256.712ZM277.967 21.9707C277.967 22.5762 277.923 23.0449 277.835 23.377H267.127C267.566 24.6562 268.46 25.2959 269.808 25.2959C270.276 25.2959 270.721 25.208 271.141 25.0322C271.57 24.8564 271.863 24.6465 272.02 24.4023H277.688C277.142 26.0527 276.15 27.3711 274.715 28.3574C273.27 29.3633 271.58 29.8662 269.646 29.8662C267.273 29.8662 265.301 29.0996 263.729 27.5664C262.137 26.0332 261.341 24.124 261.341 21.8389C261.341 19.5635 262.137 17.6592 263.729 16.126C265.32 14.6025 267.293 13.8408 269.646 13.8408C272.039 13.8408 274.021 14.6074 275.594 16.1406C277.176 17.6836 277.967 19.627 277.967 21.9707ZM269.646 18.3965C268.455 18.3965 267.615 19.0264 267.127 20.2861H272.195C272 19.7002 271.673 19.2412 271.214 18.9092C270.755 18.5674 270.232 18.3965 269.646 18.3965ZM290.345 15.3057V14.207H295.75V29.5H290.345V28.3867C289.271 29.3535 287.991 29.8467 286.507 29.8662C284.446 29.8662 282.728 29.0996 281.351 27.5664C279.964 26.0332 279.271 24.124 279.271 21.8389C279.271 19.5635 279.964 17.6592 281.351 16.126C282.728 14.6025 284.446 13.8408 286.507 13.8408C288.001 13.8408 289.28 14.3291 290.345 15.3057ZM285.613 23.8457C286.121 24.373 286.78 24.6367 287.591 24.6367C288.382 24.6367 289.041 24.373 289.568 23.8457C290.086 23.3086 290.345 22.6445 290.345 21.8535C290.345 21.0625 290.086 20.3936 289.568 19.8467C289.041 19.3193 288.382 19.0557 287.591 19.0557C286.78 19.0557 286.121 19.3193 285.613 19.8467C285.086 20.3838 284.822 21.0527 284.822 21.8535C284.822 22.6543 285.086 23.3184 285.613 23.8457ZM305.638 14.207H308.318V19.1143H305.638V29.5H300.247V19.1143H297.757V14.207H300.247V10.8965L305.638 9.69531V14.207ZM325.604 21.8389C325.604 24.124 324.808 26.0332 323.216 27.5664C321.624 29.0996 319.651 29.8662 317.298 29.8662C314.935 29.8662 312.957 29.0996 311.365 27.5664C309.773 26.0332 308.978 24.124 308.978 21.8389C308.978 19.5635 309.773 17.6592 311.365 16.126C312.967 14.6025 314.944 13.8408 317.298 13.8408C319.651 13.8408 321.624 14.6025 323.216 16.126C324.808 17.6592 325.604 19.5635 325.604 21.8389ZM315.306 23.8457C315.823 24.373 316.482 24.6367 317.283 24.6367C318.084 24.6367 318.748 24.373 319.275 23.8457C319.793 23.3086 320.052 22.6445 320.052 21.8535C320.052 21.0625 319.793 20.3936 319.275 19.8467C318.748 19.3193 318.084 19.0557 317.283 19.0557C316.482 19.0557 315.823 19.3193 315.306 19.8467C314.788 20.3936 314.529 21.0625 314.529 21.8535C314.529 22.6445 314.788 23.3086 315.306 23.8457ZM333.118 14.207V15.877C334.222 14.5977 335.491 13.958 336.927 13.958V19.5098C335.706 19.5098 334.764 19.7881 334.1 20.3447C333.445 20.9014 333.118 21.6729 333.118 22.6592V29.5H327.713V14.207H333.118ZM344.368 29.8662C342.542 29.8662 341.009 29.3584 339.769 28.3428C338.538 27.3369 337.923 26.1113 337.923 24.666H343.24C343.24 24.9883 343.353 25.2617 343.577 25.4863C343.812 25.7012 344.095 25.8086 344.427 25.8086C344.729 25.8086 344.979 25.7402 345.174 25.6035C345.379 25.457 345.481 25.2861 345.481 25.0908C345.481 24.5732 344.734 24.1631 343.24 23.8604C339.852 23.2061 338.147 21.5459 338.128 18.8799C338.128 17.2783 338.729 16.0381 339.93 15.1592C341.131 14.2803 342.591 13.8408 344.31 13.8408C346.077 13.8408 347.566 14.3193 348.777 15.2764C349.979 16.2432 350.579 17.415 350.579 18.792H345.247C345.247 18.5283 345.154 18.3135 344.969 18.1475C344.793 17.9717 344.563 17.8838 344.28 17.8838C344.036 17.8838 343.836 17.9473 343.68 18.0742C343.523 18.1914 343.445 18.3379 343.445 18.5137C343.445 19.0215 344.236 19.4414 345.818 19.7734C346.99 20.0176 348.074 20.4521 349.07 21.0771C350.223 21.8193 350.799 22.9961 350.799 24.6074C350.799 26.248 350.184 27.5322 348.953 28.46C347.703 29.3975 346.175 29.8662 344.368 29.8662Z" fill="#9CDB7E"/>
</svg>
