<svg width="36" height="40" viewBox="0 0 36 40" fill="none" xmlns="http://www.w3.org/2000/svg">
<path d="M16.6967 31.5596C20.4953 31.5596 23.4844 30.2266 25.3729 27.8531C25.6874 27.4575 25.9717 27.0329 26.224 26.5811C27.1488 24.9237 27.6445 22.8959 27.6445 20.5647V17.5325C26.7745 16.5459 25.6386 15.8231 24.2629 15.3846V20.5647C24.2629 22.0038 24.0286 23.2486 23.5861 24.2991C23.5532 24.3771 23.526 24.4601 23.4909 24.5358C23.2001 25.1609 22.8256 25.7065 22.3773 26.1777C22.3537 26.2026 22.3335 26.2307 22.3095 26.255C21.0278 27.5545 19.1362 28.2356 16.6967 28.2356H10.6517C10.0615 28.2356 9.54345 28.5335 9.24113 28.9839C9.06484 29.2463 8.96094 29.5596 8.96094 29.8975C8.96094 30.3566 9.15022 30.772 9.45615 31.0727C9.76208 31.3735 10.1847 31.5596 10.6517 31.5596H16.6967Z" fill="#9CDB7E"/>
<path d="M12.3425 5.81703V3.82395H15.276C17.5152 3.82395 19.5376 4.57106 21.0949 5.82318C22.8273 5.8447 24.4777 6.05725 26.0294 6.45327C25.6848 5.86788 25.2932 5.31321 24.8538 4.7978C24.4786 4.35757 24.071 3.945 23.6337 3.5627C23.1965 3.18039 22.7299 2.82835 22.2373 2.51011C20.2663 1.23671 17.8766 0.5 15.276 0.5H10.6517C10.5481 0.5 10.4475 0.512534 10.3492 0.53003C10.2258 0.552018 10.1062 0.583941 9.99369 0.630754C9.87488 0.680168 9.76569 0.745888 9.66275 0.819417C9.23921 1.12157 8.96118 1.60838 8.96118 2.16233V6.13551C9.48525 5.93171 10.055 5.81751 10.652 5.81751H12.3425V5.81703Z" fill="#9CDB7E"/>
<path d="M0.423058 38.9271C0.448071 38.9553 0.468515 38.9869 0.495211 39.0132C0.80114 39.3139 1.22395 39.5 1.69078 39.5H18.121C22.4699 39.5 26.8801 37.9798 30.2213 35.3289C33.9477 32.3724 36 28.3004 36 23.8626C36 21.8776 35.7078 20.0351 35.1561 18.3676C34.9665 17.7947 34.7426 17.245 34.4932 16.7149C34.3895 16.4946 34.2808 16.2783 34.1673 16.0657C34.0083 15.769 33.8412 15.4787 33.6634 15.1971C33.638 15.1566 33.6144 15.1146 33.5884 15.0744C32.7644 13.8003 31.742 12.6935 30.5517 11.7724C29.6012 11.0367 28.5415 10.4222 27.3854 9.93985C26.186 9.43957 24.8836 9.08186 23.4908 8.88184C22.6277 8.75795 21.7322 8.69081 20.8034 8.69081H19.9034H15.2659H12.3427H10.6519C10.5223 8.69081 10.3972 8.70807 10.276 8.73526C9.55714 8.89627 9.0184 9.50672 8.9715 10.2505C8.96958 10.285 8.96092 10.3177 8.96092 10.3524C8.96092 11.2705 9.7178 12.0147 10.6517 12.0147H14.9405H20.8034C20.9773 12.0147 21.1483 12.0197 21.319 12.0249C22.0425 12.0467 22.739 12.1122 23.4033 12.2242C23.6965 12.2736 23.9815 12.3346 24.2624 12.4011C24.7689 12.5207 25.2579 12.6649 25.724 12.8385C25.9905 12.9378 26.2476 13.0484 26.5003 13.1647C26.6709 13.2432 26.8385 13.3257 27.0028 13.412C27.192 13.5116 27.3772 13.6158 27.5581 13.7253C27.5867 13.7428 27.6163 13.7594 27.6449 13.7773C28.016 14.0071 28.3689 14.258 28.7017 14.5296C28.9555 14.7365 29.1989 14.9543 29.4295 15.1848C29.4343 15.1895 29.4394 15.1938 29.4439 15.1985C29.8571 15.6129 30.2311 16.0667 30.5681 16.5539C30.6145 16.6211 30.6595 16.6889 30.7045 16.7573C30.7535 16.832 30.8026 16.9067 30.8497 16.9831C31.9982 18.8385 32.6184 21.1607 32.6184 23.8624C32.6184 26.6357 31.5585 29.2374 29.5974 31.356C29.145 31.8449 28.6445 32.3081 28.0978 32.7419C25.3471 34.9242 21.7108 36.1758 18.121 36.1758H3.38157V2.36021C3.38157 2.13064 3.33419 1.91218 3.24857 1.71311C2.99194 1.1166 2.39115 0.698116 1.69078 0.698116C1.22395 0.698116 0.80114 0.88419 0.495211 1.18493C0.189283 1.48566 0 1.90107 0 2.36021V37.8379C0 38.1758 0.103899 38.489 0.280192 38.7515C0.322282 38.8143 0.372791 38.8706 0.423058 38.9271Z" fill="#9CDB7E"/>
</svg>
