<svg width="307" height="37" viewBox="0 0 307 37" fill="none" xmlns="http://www.w3.org/2000/svg">
<g filter="url(#filter0_d_9_594)">
<mask id="path-1-outside-1_9_594" maskUnits="userSpaceOnUse" x="3" y="-0.5" width="301" height="30" fill="black">
<rect fill="white" x="3" y="-0.5" width="301" height="30"/>
<path d="M15.792 8.30566V0.893555H21.1973V22.5H15.792V21.3867C14.7178 22.3535 13.4385 22.8467 11.9541 22.8662C9.89355 22.8662 8.1748 22.0996 6.79785 20.5664C5.41113 19.0332 4.71777 17.124 4.71777 14.8389C4.71777 12.5635 5.41113 10.6592 6.79785 9.12598C8.1748 7.60254 9.89355 6.84082 11.9541 6.84082C13.4482 6.84082 14.7275 7.3291 15.792 8.30566ZM11.0605 16.8457C11.5684 17.373 12.2275 17.6367 13.0381 17.6367C13.8291 17.6367 14.4883 17.373 15.0156 16.8457C15.5332 16.3086 15.792 15.6445 15.792 14.8535C15.792 14.0625 15.5332 13.3936 15.0156 12.8467C14.4883 12.3193 13.8291 12.0557 13.0381 12.0557C12.2275 12.0557 11.5684 12.3193 11.0605 12.8467C10.5332 13.3838 10.2695 14.0527 10.2695 14.8535C10.2695 15.6543 10.5332 16.3184 11.0605 16.8457ZM29.5908 7.20703V8.87695C30.6943 7.59766 31.9639 6.95801 33.3994 6.95801V12.5098C32.1787 12.5098 31.2363 12.7881 30.5723 13.3447C29.918 13.9014 29.5908 14.6729 29.5908 15.6592V22.5H24.1855V7.20703H29.5908ZM50.8457 14.9707C50.8457 15.5762 50.8018 16.0449 50.7139 16.377H40.0059C40.4453 17.6562 41.3389 18.2959 42.6865 18.2959C43.1553 18.2959 43.5996 18.208 44.0195 18.0322C44.4492 17.8564 44.7422 17.6465 44.8984 17.4023H50.5674C50.0205 19.0527 49.0293 20.3711 47.5938 21.3574C46.1484 22.3633 44.459 22.8662 42.5254 22.8662C40.1523 22.8662 38.1797 22.0996 36.6074 20.5664C35.0156 19.0332 34.2197 17.124 34.2197 14.8389C34.2197 12.5635 35.0156 10.6592 36.6074 9.12598C38.1992 7.60254 40.1719 6.84082 42.5254 6.84082C44.918 6.84082 46.9004 7.60742 48.4727 9.14062C50.0547 10.6836 50.8457 12.627 50.8457 14.9707ZM42.5254 11.3965C41.334 11.3965 40.4941 12.0264 40.0059 13.2861H45.0742C44.8789 12.7002 44.5518 12.2412 44.0928 11.9092C43.6338 11.5674 43.1113 11.3965 42.5254 11.3965ZM63.2236 8.30566V7.20703H68.6289V22.5H63.2236V21.3867C62.1494 22.3535 60.8701 22.8467 59.3857 22.8662C57.3252 22.8662 55.6064 22.0996 54.2295 20.5664C52.8428 19.0332 52.1494 17.124 52.1494 14.8389C52.1494 12.5635 52.8428 10.6592 54.2295 9.12598C55.6064 7.60254 57.3252 6.84082 59.3857 6.84082C60.8799 6.84082 62.1592 7.3291 63.2236 8.30566ZM58.4922 16.8457C59 17.373 59.6592 17.6367 60.4697 17.6367C61.2607 17.6367 61.9199 17.373 62.4473 16.8457C62.9648 16.3086 63.2236 15.6445 63.2236 14.8535C63.2236 14.0625 62.9648 13.3936 62.4473 12.8467C61.9199 12.3193 61.2607 12.0557 60.4697 12.0557C59.6592 12.0557 59 12.3193 58.4922 12.8467C57.9648 13.3838 57.7012 14.0527 57.7012 14.8535C57.7012 15.6543 57.9648 16.3184 58.4922 16.8457ZM90.3965 6.84082C92.0273 6.84082 93.3506 7.34863 94.3662 8.36426C95.3623 9.38965 95.8604 10.752 95.8604 12.4512V22.5H90.4697V14.1064C90.4697 13.4912 90.2939 12.998 89.9424 12.627C89.5908 12.2461 89.1367 12.0557 88.5801 12.0557C87.9355 12.0557 87.418 12.251 87.0273 12.6416C86.6367 13.0322 86.4414 13.54 86.4414 14.165V22.5H81.0361V14.1064C81.0361 13.4912 80.8604 12.998 80.5088 12.627C80.167 12.2461 79.7129 12.0557 79.1465 12.0557C78.502 12.0557 77.9844 12.251 77.5938 12.6416C77.2129 13.0322 77.0225 13.54 77.0225 14.165V22.5H71.6172V7.20703H77.0225V8.52539C78.0869 7.40234 79.4053 6.84082 80.9775 6.84082C83.0967 6.84082 84.6299 7.63184 85.5771 9.21387C86.8076 7.63184 88.4141 6.84082 90.3965 6.84082ZM104.151 22.8662C102.325 22.8662 100.792 22.3584 99.5518 21.3428C98.3213 20.3369 97.7061 19.1113 97.7061 17.666H103.023C103.023 17.9883 103.136 18.2617 103.36 18.4863C103.595 18.7012 103.878 18.8086 104.21 18.8086C104.513 18.8086 104.762 18.7402 104.957 18.6035C105.162 18.457 105.265 18.2861 105.265 18.0908C105.265 17.5732 104.518 17.1631 103.023 16.8604C99.6348 16.2061 97.9307 14.5459 97.9111 11.8799C97.9111 10.2783 98.5117 9.03809 99.7129 8.15918C100.914 7.28027 102.374 6.84082 104.093 6.84082C105.86 6.84082 107.35 7.31934 108.561 8.27637C109.762 9.24316 110.362 10.415 110.362 11.792H105.03C105.03 11.5283 104.938 11.3135 104.752 11.1475C104.576 10.9717 104.347 10.8838 104.063 10.8838C103.819 10.8838 103.619 10.9473 103.463 11.0742C103.307 11.1914 103.229 11.3379 103.229 11.5137C103.229 12.0215 104.02 12.4414 105.602 12.7734C106.773 13.0176 107.857 13.4521 108.854 14.0771C110.006 14.8193 110.582 15.9961 110.582 17.6074C110.582 19.248 109.967 20.5322 108.736 21.46C107.486 22.3975 105.958 22.8662 104.151 22.8662ZM121.935 6.84082C123.995 6.84082 125.719 7.60254 127.105 9.12598C128.482 10.6592 129.171 12.5635 129.171 14.8389C129.171 17.1143 128.482 19.0234 127.105 20.5664C125.719 22.0996 123.995 22.8662 121.935 22.8662C120.45 22.8662 119.171 22.373 118.097 21.3867V28.1982H112.691V7.20703H118.097V8.30566C119.161 7.3291 120.44 6.84082 121.935 6.84082ZM118.888 16.8457C119.405 17.373 120.064 17.6367 120.865 17.6367C121.656 17.6367 122.315 17.373 122.843 16.8457C123.36 16.3086 123.619 15.6445 123.619 14.8535C123.619 14.0625 123.36 13.3936 122.843 12.8467C122.315 12.3193 121.656 12.0557 120.865 12.0557C120.064 12.0557 119.405 12.3193 118.888 12.8467C118.36 13.3838 118.097 14.0527 118.097 14.8535C118.097 15.6543 118.36 16.3184 118.888 16.8457ZM141.681 8.30566V7.20703H147.086V22.5H141.681V21.3867C140.606 22.3535 139.327 22.8467 137.843 22.8662C135.782 22.8662 134.063 22.0996 132.687 20.5664C131.3 19.0332 130.606 17.124 130.606 14.8389C130.606 12.5635 131.3 10.6592 132.687 9.12598C134.063 7.60254 135.782 6.84082 137.843 6.84082C139.337 6.84082 140.616 7.3291 141.681 8.30566ZM136.949 16.8457C137.457 17.373 138.116 17.6367 138.927 17.6367C139.718 17.6367 140.377 17.373 140.904 16.8457C141.422 16.3086 141.681 15.6445 141.681 14.8535C141.681 14.0625 141.422 13.3936 140.904 12.8467C140.377 12.3193 139.718 12.0557 138.927 12.0557C138.116 12.0557 137.457 12.3193 136.949 12.8467C136.422 13.3838 136.158 14.0527 136.158 14.8535C136.158 15.6543 136.422 16.3184 136.949 16.8457ZM157.516 22.8662C155.143 22.8662 153.17 22.0996 151.598 20.5664C150.006 19.0332 149.21 17.124 149.21 14.8389C149.21 12.5635 150.006 10.6592 151.598 9.12598C153.189 7.60254 155.162 6.84082 157.516 6.84082C159.713 6.84082 161.583 7.50977 163.126 8.84766C164.679 10.1855 165.562 11.8848 165.777 13.9453H160.167C159.991 13.3887 159.659 12.9346 159.171 12.583C158.683 12.2314 158.131 12.0557 157.516 12.0557C156.715 12.0557 156.056 12.3193 155.538 12.8467C155.021 13.3936 154.762 14.0625 154.762 14.8535C154.762 15.6445 155.021 16.3086 155.538 16.8457C156.056 17.373 156.715 17.6367 157.516 17.6367C158.131 17.6367 158.678 17.4658 159.156 17.124C159.645 16.7725 159.981 16.3135 160.167 15.7471H165.777C165.562 17.8076 164.679 19.5068 163.126 20.8447C161.593 22.1924 159.723 22.8662 157.516 22.8662ZM183.531 14.9707C183.531 15.5762 183.487 16.0449 183.399 16.377H172.691C173.131 17.6562 174.024 18.2959 175.372 18.2959C175.841 18.2959 176.285 18.208 176.705 18.0322C177.135 17.8564 177.428 17.6465 177.584 17.4023H183.253C182.706 19.0527 181.715 20.3711 180.279 21.3574C178.834 22.3633 177.145 22.8662 175.211 22.8662C172.838 22.8662 170.865 22.0996 169.293 20.5664C167.701 19.0332 166.905 17.124 166.905 14.8389C166.905 12.5635 167.701 10.6592 169.293 9.12598C170.885 7.60254 172.857 6.84082 175.211 6.84082C177.604 6.84082 179.586 7.60742 181.158 9.14062C182.74 10.6836 183.531 12.627 183.531 14.9707ZM175.211 11.3965C174.02 11.3965 173.18 12.0264 172.691 13.2861H177.76C177.564 12.7002 177.237 12.2412 176.778 11.9092C176.319 11.5674 175.797 11.3965 175.211 11.3965ZM193.053 22.8662C190.68 22.8662 188.707 22.0996 187.135 20.5664C185.543 19.0332 184.747 17.124 184.747 14.8389C184.747 12.5635 185.543 10.6592 187.135 9.12598C188.727 7.60254 190.699 6.84082 193.053 6.84082C195.25 6.84082 197.12 7.50977 198.663 8.84766C200.216 10.1855 201.1 11.8848 201.314 13.9453H195.704C195.528 13.3887 195.196 12.9346 194.708 12.583C194.22 12.2314 193.668 12.0557 193.053 12.0557C192.252 12.0557 191.593 12.3193 191.075 12.8467C190.558 13.3936 190.299 14.0625 190.299 14.8535C190.299 15.6445 190.558 16.3086 191.075 16.8457C191.593 17.373 192.252 17.6367 193.053 17.6367C193.668 17.6367 194.215 17.4658 194.693 17.124C195.182 16.7725 195.519 16.3135 195.704 15.7471H201.314C201.1 17.8076 200.216 19.5068 198.663 20.8447C197.13 22.1924 195.26 22.8662 193.053 22.8662ZM208.712 7.20703V8.87695C209.815 7.59766 211.085 6.95801 212.521 6.95801V12.5098C211.3 12.5098 210.357 12.7881 209.693 13.3447C209.039 13.9014 208.712 14.6729 208.712 15.6592V22.5H203.307V7.20703H208.712ZM229.967 14.9707C229.967 15.5762 229.923 16.0449 229.835 16.377H219.127C219.566 17.6562 220.46 18.2959 221.808 18.2959C222.276 18.2959 222.721 18.208 223.141 18.0322C223.57 17.8564 223.863 17.6465 224.02 17.4023H229.688C229.142 19.0527 228.15 20.3711 226.715 21.3574C225.27 22.3633 223.58 22.8662 221.646 22.8662C219.273 22.8662 217.301 22.0996 215.729 20.5664C214.137 19.0332 213.341 17.124 213.341 14.8389C213.341 12.5635 214.137 10.6592 215.729 9.12598C217.32 7.60254 219.293 6.84082 221.646 6.84082C224.039 6.84082 226.021 7.60742 227.594 9.14062C229.176 10.6836 229.967 12.627 229.967 14.9707ZM221.646 11.3965C220.455 11.3965 219.615 12.0264 219.127 13.2861H224.195C224 12.7002 223.673 12.2412 223.214 11.9092C222.755 11.5674 222.232 11.3965 221.646 11.3965ZM242.345 8.30566V7.20703H247.75V22.5H242.345V21.3867C241.271 22.3535 239.991 22.8467 238.507 22.8662C236.446 22.8662 234.728 22.0996 233.351 20.5664C231.964 19.0332 231.271 17.124 231.271 14.8389C231.271 12.5635 231.964 10.6592 233.351 9.12598C234.728 7.60254 236.446 6.84082 238.507 6.84082C240.001 6.84082 241.28 7.3291 242.345 8.30566ZM237.613 16.8457C238.121 17.373 238.78 17.6367 239.591 17.6367C240.382 17.6367 241.041 17.373 241.568 16.8457C242.086 16.3086 242.345 15.6445 242.345 14.8535C242.345 14.0625 242.086 13.3936 241.568 12.8467C241.041 12.3193 240.382 12.0557 239.591 12.0557C238.78 12.0557 238.121 12.3193 237.613 12.8467C237.086 13.3838 236.822 14.0527 236.822 14.8535C236.822 15.6543 237.086 16.3184 237.613 16.8457ZM257.638 7.20703H260.318V12.1143H257.638V22.5H252.247V12.1143H249.757V7.20703H252.247V3.89648L257.638 2.69531V7.20703ZM277.604 14.8389C277.604 17.124 276.808 19.0332 275.216 20.5664C273.624 22.0996 271.651 22.8662 269.298 22.8662C266.935 22.8662 264.957 22.0996 263.365 20.5664C261.773 19.0332 260.978 17.124 260.978 14.8389C260.978 12.5635 261.773 10.6592 263.365 9.12598C264.967 7.60254 266.944 6.84082 269.298 6.84082C271.651 6.84082 273.624 7.60254 275.216 9.12598C276.808 10.6592 277.604 12.5635 277.604 14.8389ZM267.306 16.8457C267.823 17.373 268.482 17.6367 269.283 17.6367C270.084 17.6367 270.748 17.373 271.275 16.8457C271.793 16.3086 272.052 15.6445 272.052 14.8535C272.052 14.0625 271.793 13.3936 271.275 12.8467C270.748 12.3193 270.084 12.0557 269.283 12.0557C268.482 12.0557 267.823 12.3193 267.306 12.8467C266.788 13.3936 266.529 14.0625 266.529 14.8535C266.529 15.6445 266.788 16.3086 267.306 16.8457ZM285.118 7.20703V8.87695C286.222 7.59766 287.491 6.95801 288.927 6.95801V12.5098C287.706 12.5098 286.764 12.7881 286.1 13.3447C285.445 13.9014 285.118 14.6729 285.118 15.6592V22.5H279.713V7.20703H285.118ZM296.368 22.8662C294.542 22.8662 293.009 22.3584 291.769 21.3428C290.538 20.3369 289.923 19.1113 289.923 17.666H295.24C295.24 17.9883 295.353 18.2617 295.577 18.4863C295.812 18.7012 296.095 18.8086 296.427 18.8086C296.729 18.8086 296.979 18.7402 297.174 18.6035C297.379 18.457 297.481 18.2861 297.481 18.0908C297.481 17.5732 296.734 17.1631 295.24 16.8604C291.852 16.2061 290.147 14.5459 290.128 11.8799C290.128 10.2783 290.729 9.03809 291.93 8.15918C293.131 7.28027 294.591 6.84082 296.31 6.84082C298.077 6.84082 299.566 7.31934 300.777 8.27637C301.979 9.24316 302.579 10.415 302.579 11.792H297.247C297.247 11.5283 297.154 11.3135 296.969 11.1475C296.793 10.9717 296.563 10.8838 296.28 10.8838C296.036 10.8838 295.836 10.9473 295.68 11.0742C295.523 11.1914 295.445 11.3379 295.445 11.5137C295.445 12.0215 296.236 12.4414 297.818 12.7734C298.99 13.0176 300.074 13.4521 301.07 14.0771C302.223 14.8193 302.799 15.9961 302.799 17.6074C302.799 19.248 302.184 20.5322 300.953 21.46C299.703 22.3975 298.175 22.8662 296.368 22.8662Z"/>
</mask>
<path d="M15.792 8.30566V0.893555H21.1973V22.5H15.792V21.3867C14.7178 22.3535 13.4385 22.8467 11.9541 22.8662C9.89355 22.8662 8.1748 22.0996 6.79785 20.5664C5.41113 19.0332 4.71777 17.124 4.71777 14.8389C4.71777 12.5635 5.41113 10.6592 6.79785 9.12598C8.1748 7.60254 9.89355 6.84082 11.9541 6.84082C13.4482 6.84082 14.7275 7.3291 15.792 8.30566ZM11.0605 16.8457C11.5684 17.373 12.2275 17.6367 13.0381 17.6367C13.8291 17.6367 14.4883 17.373 15.0156 16.8457C15.5332 16.3086 15.792 15.6445 15.792 14.8535C15.792 14.0625 15.5332 13.3936 15.0156 12.8467C14.4883 12.3193 13.8291 12.0557 13.0381 12.0557C12.2275 12.0557 11.5684 12.3193 11.0605 12.8467C10.5332 13.3838 10.2695 14.0527 10.2695 14.8535C10.2695 15.6543 10.5332 16.3184 11.0605 16.8457ZM29.5908 7.20703V8.87695C30.6943 7.59766 31.9639 6.95801 33.3994 6.95801V12.5098C32.1787 12.5098 31.2363 12.7881 30.5723 13.3447C29.918 13.9014 29.5908 14.6729 29.5908 15.6592V22.5H24.1855V7.20703H29.5908ZM50.8457 14.9707C50.8457 15.5762 50.8018 16.0449 50.7139 16.377H40.0059C40.4453 17.6562 41.3389 18.2959 42.6865 18.2959C43.1553 18.2959 43.5996 18.208 44.0195 18.0322C44.4492 17.8564 44.7422 17.6465 44.8984 17.4023H50.5674C50.0205 19.0527 49.0293 20.3711 47.5938 21.3574C46.1484 22.3633 44.459 22.8662 42.5254 22.8662C40.1523 22.8662 38.1797 22.0996 36.6074 20.5664C35.0156 19.0332 34.2197 17.124 34.2197 14.8389C34.2197 12.5635 35.0156 10.6592 36.6074 9.12598C38.1992 7.60254 40.1719 6.84082 42.5254 6.84082C44.918 6.84082 46.9004 7.60742 48.4727 9.14062C50.0547 10.6836 50.8457 12.627 50.8457 14.9707ZM42.5254 11.3965C41.334 11.3965 40.4941 12.0264 40.0059 13.2861H45.0742C44.8789 12.7002 44.5518 12.2412 44.0928 11.9092C43.6338 11.5674 43.1113 11.3965 42.5254 11.3965ZM63.2236 8.30566V7.20703H68.6289V22.5H63.2236V21.3867C62.1494 22.3535 60.8701 22.8467 59.3857 22.8662C57.3252 22.8662 55.6064 22.0996 54.2295 20.5664C52.8428 19.0332 52.1494 17.124 52.1494 14.8389C52.1494 12.5635 52.8428 10.6592 54.2295 9.12598C55.6064 7.60254 57.3252 6.84082 59.3857 6.84082C60.8799 6.84082 62.1592 7.3291 63.2236 8.30566ZM58.4922 16.8457C59 17.373 59.6592 17.6367 60.4697 17.6367C61.2607 17.6367 61.9199 17.373 62.4473 16.8457C62.9648 16.3086 63.2236 15.6445 63.2236 14.8535C63.2236 14.0625 62.9648 13.3936 62.4473 12.8467C61.9199 12.3193 61.2607 12.0557 60.4697 12.0557C59.6592 12.0557 59 12.3193 58.4922 12.8467C57.9648 13.3838 57.7012 14.0527 57.7012 14.8535C57.7012 15.6543 57.9648 16.3184 58.4922 16.8457ZM90.3965 6.84082C92.0273 6.84082 93.3506 7.34863 94.3662 8.36426C95.3623 9.38965 95.8604 10.752 95.8604 12.4512V22.5H90.4697V14.1064C90.4697 13.4912 90.2939 12.998 89.9424 12.627C89.5908 12.2461 89.1367 12.0557 88.5801 12.0557C87.9355 12.0557 87.418 12.251 87.0273 12.6416C86.6367 13.0322 86.4414 13.54 86.4414 14.165V22.5H81.0361V14.1064C81.0361 13.4912 80.8604 12.998 80.5088 12.627C80.167 12.2461 79.7129 12.0557 79.1465 12.0557C78.502 12.0557 77.9844 12.251 77.5938 12.6416C77.2129 13.0322 77.0225 13.54 77.0225 14.165V22.5H71.6172V7.20703H77.0225V8.52539C78.0869 7.40234 79.4053 6.84082 80.9775 6.84082C83.0967 6.84082 84.6299 7.63184 85.5771 9.21387C86.8076 7.63184 88.4141 6.84082 90.3965 6.84082ZM104.151 22.8662C102.325 22.8662 100.792 22.3584 99.5518 21.3428C98.3213 20.3369 97.7061 19.1113 97.7061 17.666H103.023C103.023 17.9883 103.136 18.2617 103.36 18.4863C103.595 18.7012 103.878 18.8086 104.21 18.8086C104.513 18.8086 104.762 18.7402 104.957 18.6035C105.162 18.457 105.265 18.2861 105.265 18.0908C105.265 17.5732 104.518 17.1631 103.023 16.8604C99.6348 16.2061 97.9307 14.5459 97.9111 11.8799C97.9111 10.2783 98.5117 9.03809 99.7129 8.15918C100.914 7.28027 102.374 6.84082 104.093 6.84082C105.86 6.84082 107.35 7.31934 108.561 8.27637C109.762 9.24316 110.362 10.415 110.362 11.792H105.03C105.03 11.5283 104.938 11.3135 104.752 11.1475C104.576 10.9717 104.347 10.8838 104.063 10.8838C103.819 10.8838 103.619 10.9473 103.463 11.0742C103.307 11.1914 103.229 11.3379 103.229 11.5137C103.229 12.0215 104.02 12.4414 105.602 12.7734C106.773 13.0176 107.857 13.4521 108.854 14.0771C110.006 14.8193 110.582 15.9961 110.582 17.6074C110.582 19.248 109.967 20.5322 108.736 21.46C107.486 22.3975 105.958 22.8662 104.151 22.8662ZM121.935 6.84082C123.995 6.84082 125.719 7.60254 127.105 9.12598C128.482 10.6592 129.171 12.5635 129.171 14.8389C129.171 17.1143 128.482 19.0234 127.105 20.5664C125.719 22.0996 123.995 22.8662 121.935 22.8662C120.45 22.8662 119.171 22.373 118.097 21.3867V28.1982H112.691V7.20703H118.097V8.30566C119.161 7.3291 120.44 6.84082 121.935 6.84082ZM118.888 16.8457C119.405 17.373 120.064 17.6367 120.865 17.6367C121.656 17.6367 122.315 17.373 122.843 16.8457C123.36 16.3086 123.619 15.6445 123.619 14.8535C123.619 14.0625 123.36 13.3936 122.843 12.8467C122.315 12.3193 121.656 12.0557 120.865 12.0557C120.064 12.0557 119.405 12.3193 118.888 12.8467C118.36 13.3838 118.097 14.0527 118.097 14.8535C118.097 15.6543 118.36 16.3184 118.888 16.8457ZM141.681 8.30566V7.20703H147.086V22.5H141.681V21.3867C140.606 22.3535 139.327 22.8467 137.843 22.8662C135.782 22.8662 134.063 22.0996 132.687 20.5664C131.3 19.0332 130.606 17.124 130.606 14.8389C130.606 12.5635 131.3 10.6592 132.687 9.12598C134.063 7.60254 135.782 6.84082 137.843 6.84082C139.337 6.84082 140.616 7.3291 141.681 8.30566ZM136.949 16.8457C137.457 17.373 138.116 17.6367 138.927 17.6367C139.718 17.6367 140.377 17.373 140.904 16.8457C141.422 16.3086 141.681 15.6445 141.681 14.8535C141.681 14.0625 141.422 13.3936 140.904 12.8467C140.377 12.3193 139.718 12.0557 138.927 12.0557C138.116 12.0557 137.457 12.3193 136.949 12.8467C136.422 13.3838 136.158 14.0527 136.158 14.8535C136.158 15.6543 136.422 16.3184 136.949 16.8457ZM157.516 22.8662C155.143 22.8662 153.17 22.0996 151.598 20.5664C150.006 19.0332 149.21 17.124 149.21 14.8389C149.21 12.5635 150.006 10.6592 151.598 9.12598C153.189 7.60254 155.162 6.84082 157.516 6.84082C159.713 6.84082 161.583 7.50977 163.126 8.84766C164.679 10.1855 165.562 11.8848 165.777 13.9453H160.167C159.991 13.3887 159.659 12.9346 159.171 12.583C158.683 12.2314 158.131 12.0557 157.516 12.0557C156.715 12.0557 156.056 12.3193 155.538 12.8467C155.021 13.3936 154.762 14.0625 154.762 14.8535C154.762 15.6445 155.021 16.3086 155.538 16.8457C156.056 17.373 156.715 17.6367 157.516 17.6367C158.131 17.6367 158.678 17.4658 159.156 17.124C159.645 16.7725 159.981 16.3135 160.167 15.7471H165.777C165.562 17.8076 164.679 19.5068 163.126 20.8447C161.593 22.1924 159.723 22.8662 157.516 22.8662ZM183.531 14.9707C183.531 15.5762 183.487 16.0449 183.399 16.377H172.691C173.131 17.6562 174.024 18.2959 175.372 18.2959C175.841 18.2959 176.285 18.208 176.705 18.0322C177.135 17.8564 177.428 17.6465 177.584 17.4023H183.253C182.706 19.0527 181.715 20.3711 180.279 21.3574C178.834 22.3633 177.145 22.8662 175.211 22.8662C172.838 22.8662 170.865 22.0996 169.293 20.5664C167.701 19.0332 166.905 17.124 166.905 14.8389C166.905 12.5635 167.701 10.6592 169.293 9.12598C170.885 7.60254 172.857 6.84082 175.211 6.84082C177.604 6.84082 179.586 7.60742 181.158 9.14062C182.74 10.6836 183.531 12.627 183.531 14.9707ZM175.211 11.3965C174.02 11.3965 173.18 12.0264 172.691 13.2861H177.76C177.564 12.7002 177.237 12.2412 176.778 11.9092C176.319 11.5674 175.797 11.3965 175.211 11.3965ZM193.053 22.8662C190.68 22.8662 188.707 22.0996 187.135 20.5664C185.543 19.0332 184.747 17.124 184.747 14.8389C184.747 12.5635 185.543 10.6592 187.135 9.12598C188.727 7.60254 190.699 6.84082 193.053 6.84082C195.25 6.84082 197.12 7.50977 198.663 8.84766C200.216 10.1855 201.1 11.8848 201.314 13.9453H195.704C195.528 13.3887 195.196 12.9346 194.708 12.583C194.22 12.2314 193.668 12.0557 193.053 12.0557C192.252 12.0557 191.593 12.3193 191.075 12.8467C190.558 13.3936 190.299 14.0625 190.299 14.8535C190.299 15.6445 190.558 16.3086 191.075 16.8457C191.593 17.373 192.252 17.6367 193.053 17.6367C193.668 17.6367 194.215 17.4658 194.693 17.124C195.182 16.7725 195.519 16.3135 195.704 15.7471H201.314C201.1 17.8076 200.216 19.5068 198.663 20.8447C197.13 22.1924 195.26 22.8662 193.053 22.8662ZM208.712 7.20703V8.87695C209.815 7.59766 211.085 6.95801 212.521 6.95801V12.5098C211.3 12.5098 210.357 12.7881 209.693 13.3447C209.039 13.9014 208.712 14.6729 208.712 15.6592V22.5H203.307V7.20703H208.712ZM229.967 14.9707C229.967 15.5762 229.923 16.0449 229.835 16.377H219.127C219.566 17.6562 220.46 18.2959 221.808 18.2959C222.276 18.2959 222.721 18.208 223.141 18.0322C223.57 17.8564 223.863 17.6465 224.02 17.4023H229.688C229.142 19.0527 228.15 20.3711 226.715 21.3574C225.27 22.3633 223.58 22.8662 221.646 22.8662C219.273 22.8662 217.301 22.0996 215.729 20.5664C214.137 19.0332 213.341 17.124 213.341 14.8389C213.341 12.5635 214.137 10.6592 215.729 9.12598C217.32 7.60254 219.293 6.84082 221.646 6.84082C224.039 6.84082 226.021 7.60742 227.594 9.14062C229.176 10.6836 229.967 12.627 229.967 14.9707ZM221.646 11.3965C220.455 11.3965 219.615 12.0264 219.127 13.2861H224.195C224 12.7002 223.673 12.2412 223.214 11.9092C222.755 11.5674 222.232 11.3965 221.646 11.3965ZM242.345 8.30566V7.20703H247.75V22.5H242.345V21.3867C241.271 22.3535 239.991 22.8467 238.507 22.8662C236.446 22.8662 234.728 22.0996 233.351 20.5664C231.964 19.0332 231.271 17.124 231.271 14.8389C231.271 12.5635 231.964 10.6592 233.351 9.12598C234.728 7.60254 236.446 6.84082 238.507 6.84082C240.001 6.84082 241.28 7.3291 242.345 8.30566ZM237.613 16.8457C238.121 17.373 238.78 17.6367 239.591 17.6367C240.382 17.6367 241.041 17.373 241.568 16.8457C242.086 16.3086 242.345 15.6445 242.345 14.8535C242.345 14.0625 242.086 13.3936 241.568 12.8467C241.041 12.3193 240.382 12.0557 239.591 12.0557C238.78 12.0557 238.121 12.3193 237.613 12.8467C237.086 13.3838 236.822 14.0527 236.822 14.8535C236.822 15.6543 237.086 16.3184 237.613 16.8457ZM257.638 7.20703H260.318V12.1143H257.638V22.5H252.247V12.1143H249.757V7.20703H252.247V3.89648L257.638 2.69531V7.20703ZM277.604 14.8389C277.604 17.124 276.808 19.0332 275.216 20.5664C273.624 22.0996 271.651 22.8662 269.298 22.8662C266.935 22.8662 264.957 22.0996 263.365 20.5664C261.773 19.0332 260.978 17.124 260.978 14.8389C260.978 12.5635 261.773 10.6592 263.365 9.12598C264.967 7.60254 266.944 6.84082 269.298 6.84082C271.651 6.84082 273.624 7.60254 275.216 9.12598C276.808 10.6592 277.604 12.5635 277.604 14.8389ZM267.306 16.8457C267.823 17.373 268.482 17.6367 269.283 17.6367C270.084 17.6367 270.748 17.373 271.275 16.8457C271.793 16.3086 272.052 15.6445 272.052 14.8535C272.052 14.0625 271.793 13.3936 271.275 12.8467C270.748 12.3193 270.084 12.0557 269.283 12.0557C268.482 12.0557 267.823 12.3193 267.306 12.8467C266.788 13.3936 266.529 14.0625 266.529 14.8535C266.529 15.6445 266.788 16.3086 267.306 16.8457ZM285.118 7.20703V8.87695C286.222 7.59766 287.491 6.95801 288.927 6.95801V12.5098C287.706 12.5098 286.764 12.7881 286.1 13.3447C285.445 13.9014 285.118 14.6729 285.118 15.6592V22.5H279.713V7.20703H285.118ZM296.368 22.8662C294.542 22.8662 293.009 22.3584 291.769 21.3428C290.538 20.3369 289.923 19.1113 289.923 17.666H295.24C295.24 17.9883 295.353 18.2617 295.577 18.4863C295.812 18.7012 296.095 18.8086 296.427 18.8086C296.729 18.8086 296.979 18.7402 297.174 18.6035C297.379 18.457 297.481 18.2861 297.481 18.0908C297.481 17.5732 296.734 17.1631 295.24 16.8604C291.852 16.2061 290.147 14.5459 290.128 11.8799C290.128 10.2783 290.729 9.03809 291.93 8.15918C293.131 7.28027 294.591 6.84082 296.31 6.84082C298.077 6.84082 299.566 7.31934 300.777 8.27637C301.979 9.24316 302.579 10.415 302.579 11.792H297.247C297.247 11.5283 297.154 11.3135 296.969 11.1475C296.793 10.9717 296.563 10.8838 296.28 10.8838C296.036 10.8838 295.836 10.9473 295.68 11.0742C295.523 11.1914 295.445 11.3379 295.445 11.5137C295.445 12.0215 296.236 12.4414 297.818 12.7734C298.99 13.0176 300.074 13.4521 301.07 14.0771C302.223 14.8193 302.799 15.9961 302.799 17.6074C302.799 19.248 302.184 20.5322 300.953 21.46C299.703 22.3975 298.175 22.8662 296.368 22.8662Z" fill="#9CDB7E"/>
<path d="M15.792 8.30566L15.116 9.04254L16.792 10.5802V8.30566H15.792ZM15.792 0.893555V-0.106445H14.792V0.893555H15.792ZM21.1973 0.893555H22.1973V-0.106445H21.1973V0.893555ZM21.1973 22.5V23.5H22.1973V22.5H21.1973ZM15.792 22.5H14.792V23.5H15.792V22.5ZM15.792 21.3867H16.792V19.1414L15.123 20.6434L15.792 21.3867ZM11.9541 22.8662L11.9541 23.8663L11.9673 23.8661L11.9541 22.8662ZM6.79785 20.5664L7.54186 19.8982L7.5395 19.8956L6.79785 20.5664ZM6.79785 9.12598L7.5395 9.79677L7.53973 9.79652L6.79785 9.12598ZM11.0605 16.8457L11.7809 16.1521L11.7743 16.1453L11.7677 16.1386L11.0605 16.8457ZM15.0156 16.8457L15.7227 17.5528L15.7293 17.5463L15.7357 17.5396L15.0156 16.8457ZM15.0156 12.8467L15.7419 12.1593L15.7325 12.1493L15.7227 12.1396L15.0156 12.8467ZM11.0605 12.8467L11.7741 13.5473L11.7809 13.5403L11.0605 12.8467ZM16.792 8.30566V0.893555H14.792V8.30566H16.792ZM15.792 1.89355H21.1973V-0.106445H15.792V1.89355ZM20.1973 0.893555V22.5H22.1973V0.893555H20.1973ZM21.1973 21.5H15.792V23.5H21.1973V21.5ZM16.792 22.5V21.3867H14.792V22.5H16.792ZM15.123 20.6434C14.2344 21.4432 13.1901 21.8499 11.9409 21.8663L11.9673 23.8661C13.6869 23.8435 15.2012 23.2638 16.461 22.13L15.123 20.6434ZM11.9541 21.8662C10.1774 21.8662 8.72916 21.2203 7.54185 19.8982L6.05385 21.2346C7.62045 22.979 9.60967 23.8662 11.9541 23.8662V21.8662ZM7.5395 19.8956C6.33707 18.5662 5.71777 16.9044 5.71777 14.8389H3.71777C3.71777 17.3437 4.48519 19.5002 6.0562 21.2372L7.5395 19.8956ZM5.71777 14.8389C5.71777 12.7844 6.33632 11.127 7.5395 9.79677L6.0562 8.45519C4.48594 10.1913 3.71777 12.3426 3.71777 14.8389H5.71777ZM7.53973 9.79652C8.72634 8.48366 10.1752 7.84082 11.9541 7.84082V5.84082C9.61192 5.84082 7.62327 6.72141 6.05598 8.45544L7.53973 9.79652ZM11.9541 7.84082C13.2074 7.84082 14.2428 8.24151 15.116 9.04254L16.468 7.56879C15.2122 6.4167 13.6891 5.84082 11.9541 5.84082V7.84082ZM10.3402 17.5393C11.0577 18.2844 11.9879 18.6367 13.0381 18.6367V16.6367C12.4672 16.6367 12.079 16.4617 11.7809 16.1521L10.3402 17.5393ZM13.0381 18.6367C14.0765 18.6367 14.9956 18.2799 15.7227 17.5528L14.3085 16.1386C13.981 16.4661 13.5817 16.6367 13.0381 16.6367V18.6367ZM15.7357 17.5396C16.4445 16.804 16.792 15.8861 16.792 14.8535H14.792C14.792 15.403 14.6219 15.8131 14.2955 16.1518L15.7357 17.5396ZM16.792 14.8535C16.792 13.8211 16.4448 12.902 15.7419 12.1593L14.2893 13.5341C14.6216 13.8851 14.792 14.3039 14.792 14.8535H16.792ZM15.7227 12.1396C14.9956 11.4124 14.0765 11.0557 13.0381 11.0557V13.0557C13.5817 13.0557 13.981 13.2262 14.3085 13.5538L15.7227 12.1396ZM13.0381 11.0557C11.9879 11.0557 11.0577 11.4079 10.3402 12.153L11.7809 13.5403C12.079 13.2307 12.4672 13.0557 13.0381 13.0557V11.0557ZM10.347 12.1461C9.62349 12.883 9.26953 13.8092 9.26953 14.8535H11.2695C11.2695 14.2963 11.4429 13.8846 11.7741 13.5473L10.347 12.1461ZM9.26953 14.8535C9.26953 15.8979 9.6238 16.8232 10.3534 17.5528L11.7677 16.1386C11.4426 15.8136 11.2695 15.4107 11.2695 14.8535H9.26953ZM29.5908 7.20703H30.5908V6.20703H29.5908V7.20703ZM29.5908 8.87695H28.5908V11.5672L30.348 9.53012L29.5908 8.87695ZM33.3994 6.95801H34.3994V5.95801H33.3994V6.95801ZM33.3994 12.5098V13.5098H34.3994V12.5098H33.3994ZM30.5723 13.3447L29.9298 12.5783L29.9243 12.5831L30.5723 13.3447ZM29.5908 22.5V23.5H30.5908V22.5H29.5908ZM24.1855 22.5H23.1855V23.5H24.1855V22.5ZM24.1855 7.20703V6.20703H23.1855V7.20703H24.1855ZM28.5908 7.20703V8.87695H30.5908V7.20703H28.5908ZM30.348 9.53012C31.2987 8.42806 32.307 7.95801 33.3994 7.95801V5.95801C31.6207 5.95801 30.09 6.76725 28.8336 8.22378L30.348 9.53012ZM32.3994 6.95801V12.5098H34.3994V6.95801H32.3994ZM33.3994 11.5098C32.0386 11.5098 30.8353 11.8194 29.9299 12.5784L31.2147 14.1111C31.6374 13.7568 32.3188 13.5098 33.3994 13.5098V11.5098ZM29.9243 12.5831C29.0122 13.359 28.5908 14.428 28.5908 15.6592H30.5908C30.5908 14.9177 30.8237 14.4437 31.2202 14.1064L29.9243 12.5831ZM28.5908 15.6592V22.5H30.5908V15.6592H28.5908ZM29.5908 21.5H24.1855V23.5H29.5908V21.5ZM25.1855 22.5V7.20703H23.1855V22.5H25.1855ZM24.1855 8.20703H29.5908V6.20703H24.1855V8.20703ZM50.7139 16.377V17.377H51.4836L51.6806 16.6328L50.7139 16.377ZM40.0059 16.377V15.377H38.605L39.0601 16.7018L40.0059 16.377ZM44.0195 18.0322L43.6409 17.1066L43.6334 17.1098L44.0195 18.0322ZM44.8984 17.4023V16.4023H44.3512L44.0562 16.8633L44.8984 17.4023ZM50.5674 17.4023L51.5166 17.7169L51.9522 16.4023H50.5674V17.4023ZM47.5938 21.3574L47.0274 20.5332L47.0225 20.5366L47.5938 21.3574ZM36.6074 20.5664L37.3056 19.8504L37.3011 19.8462L36.6074 20.5664ZM36.6074 9.12598L35.916 8.40352L35.9137 8.40574L36.6074 9.12598ZM48.4727 9.14062L49.1709 8.42474L49.1708 8.42468L48.4727 9.14062ZM40.0059 13.2861L39.0734 12.9247L38.5458 14.2861H40.0059V13.2861ZM45.0742 13.2861V14.2861H46.4616L46.0229 12.9699L45.0742 13.2861ZM44.0928 11.9092L43.4955 12.7113L43.5067 12.7194L44.0928 11.9092ZM49.8457 14.9707C49.8457 15.5447 49.8023 15.9128 49.7472 16.1211L51.6806 16.6328C51.8012 16.1771 51.8457 15.6076 51.8457 14.9707H49.8457ZM50.7139 15.377H40.0059V17.377H50.7139V15.377ZM39.0601 16.7018C39.3315 17.492 39.772 18.1629 40.4235 18.6293C41.0753 19.0959 41.8519 19.2959 42.6865 19.2959V17.2959C42.1735 17.2959 41.8294 17.1761 41.5877 17.003C41.3456 16.8297 41.1196 16.5412 40.9516 16.0521L39.0601 16.7018ZM42.6865 19.2959C43.2838 19.2959 43.8598 19.1832 44.4057 18.9547L43.6334 17.1098C43.3394 17.2328 43.0267 17.2959 42.6865 17.2959V19.2959ZM44.3982 18.9578C44.9131 18.7471 45.4247 18.4351 45.7407 17.9414L44.0562 16.8633C44.0609 16.8559 44.0466 16.8817 43.979 16.9301C43.911 16.9789 43.8031 17.0403 43.6409 17.1067L44.3982 18.9578ZM44.8984 18.4023H50.5674V16.4023H44.8984V18.4023ZM49.6181 17.0878C49.14 18.5307 48.2835 19.6702 47.0275 20.5332L48.16 22.1816C49.7751 21.072 50.901 19.5748 51.5166 17.7169L49.6181 17.0878ZM47.0225 20.5366C45.7613 21.4144 44.2757 21.8662 42.5254 21.8662V23.8662C44.6423 23.8662 46.5356 23.3122 48.165 22.1782L47.0225 20.5366ZM42.5254 21.8662C40.3901 21.8662 38.6752 21.186 37.3056 19.8505L35.9093 21.2824C37.6842 23.0132 39.9146 23.8662 42.5254 23.8662V21.8662ZM37.3011 19.8462C35.9124 18.5085 35.2197 16.8627 35.2197 14.8389H33.2197C33.2197 17.3854 34.1188 19.5579 35.9137 21.2866L37.3011 19.8462ZM35.2197 14.8389C35.2197 12.8262 35.9115 11.1847 37.3011 9.84622L35.9137 8.40574C34.1198 10.1336 33.2197 12.3008 33.2197 14.8389H35.2197ZM37.2988 9.84843C38.691 8.51604 40.4102 7.84082 42.5254 7.84082V5.84082C39.9336 5.84082 37.7074 6.68904 35.916 8.40353L37.2988 9.84843ZM42.5254 7.84082C44.6827 7.84082 46.4066 8.52262 47.7745 9.85657L49.1708 8.42468C47.3942 6.69222 45.1532 5.84082 42.5254 5.84082V7.84082ZM47.7744 9.85651C49.1509 11.1989 49.8457 12.8783 49.8457 14.9707H51.8457C51.8457 12.3756 50.9585 10.1682 49.1709 8.42474L47.7744 9.85651ZM42.5254 10.3965C41.7438 10.3965 41.0179 10.6069 40.402 11.0689C39.7951 11.5241 39.3661 12.1698 39.0734 12.9247L40.9383 13.6475C41.1339 13.1427 41.369 12.8436 41.602 12.6689C41.8259 12.501 42.1155 12.3965 42.5254 12.3965V10.3965ZM40.0059 14.2861H45.0742V12.2861H40.0059V14.2861ZM46.0229 12.9699C45.7677 12.2043 45.3229 11.5648 44.6789 11.099L43.5067 12.7194C43.7806 12.9176 43.9901 13.1961 44.1255 13.6024L46.0229 12.9699ZM44.69 11.1071C44.0541 10.6335 43.321 10.3965 42.5254 10.3965V12.3965C42.9017 12.3965 43.2135 12.5012 43.4955 12.7112L44.69 11.1071ZM63.2236 8.30566L62.5476 9.04254L64.2236 10.5802V8.30566H63.2236ZM63.2236 7.20703V6.20703H62.2236V7.20703H63.2236ZM68.6289 7.20703H69.6289V6.20703H68.6289V7.20703ZM68.6289 22.5V23.5H69.6289V22.5H68.6289ZM63.2236 22.5H62.2236V23.5H63.2236V22.5ZM63.2236 21.3867H64.2236V19.1414L62.5547 20.6434L63.2236 21.3867ZM59.3857 22.8662L59.3857 23.8663L59.3989 23.8661L59.3857 22.8662ZM54.2295 20.5664L54.9735 19.8982L54.9711 19.8956L54.2295 20.5664ZM54.2295 9.12598L54.9711 9.79677L54.9714 9.79652L54.2295 9.12598ZM58.4922 16.8457L59.2125 16.1521L59.206 16.1453L59.1993 16.1386L58.4922 16.8457ZM62.4473 16.8457L63.1544 17.5528L63.1609 17.5463L63.1673 17.5396L62.4473 16.8457ZM62.4473 12.8467L63.1736 12.1593L63.1641 12.1493L63.1544 12.1396L62.4473 12.8467ZM58.4922 12.8467L59.2058 13.5473L59.2125 13.5403L58.4922 12.8467ZM64.2236 8.30566V7.20703H62.2236V8.30566H64.2236ZM63.2236 8.20703H68.6289V6.20703H63.2236V8.20703ZM67.6289 7.20703V22.5H69.6289V7.20703H67.6289ZM68.6289 21.5H63.2236V23.5H68.6289V21.5ZM64.2236 22.5V21.3867H62.2236V22.5H64.2236ZM62.5547 20.6434C61.666 21.4432 60.6217 21.8499 59.3726 21.8663L59.3989 23.8661C61.1185 23.8435 62.6328 23.2638 63.8926 22.13L62.5547 20.6434ZM59.3857 21.8662C57.6091 21.8662 56.1608 21.2203 54.9735 19.8982L53.4855 21.2346C55.0521 22.979 57.0413 23.8662 59.3857 23.8662V21.8662ZM54.9711 19.8956C53.7687 18.5662 53.1494 16.9044 53.1494 14.8389H51.1494C51.1494 17.3437 51.9168 19.5002 53.4878 21.2372L54.9711 19.8956ZM53.1494 14.8389C53.1494 12.7844 53.768 11.127 54.9711 9.79677L53.4878 8.45519C51.9176 10.1913 51.1494 12.3426 51.1494 14.8389H53.1494ZM54.9714 9.79652C56.158 8.48366 57.6068 7.84082 59.3857 7.84082V5.84082C57.0436 5.84082 55.0549 6.72141 53.4876 8.45544L54.9714 9.79652ZM59.3857 7.84082C60.639 7.84082 61.6745 8.24151 62.5476 9.04254L63.8997 7.56879C62.6439 6.4167 61.1207 5.84082 59.3857 5.84082V7.84082ZM57.7719 17.5393C58.4894 18.2844 59.4195 18.6367 60.4697 18.6367V16.6367C59.8988 16.6367 59.5106 16.4617 59.2125 16.1521L57.7719 17.5393ZM60.4697 18.6367C61.5081 18.6367 62.4272 18.2799 63.1544 17.5528L61.7402 16.1386C61.4126 16.4661 61.0134 16.6367 60.4697 16.6367V18.6367ZM63.1673 17.5396C63.8761 16.804 64.2236 15.8861 64.2236 14.8535H62.2236C62.2236 15.403 62.0535 15.8131 61.7272 16.1518L63.1673 17.5396ZM64.2236 14.8535C64.2236 13.8211 63.8765 12.902 63.1736 12.1593L61.721 13.5341C62.0532 13.8851 62.2236 14.3039 62.2236 14.8535H64.2236ZM63.1544 12.1396C62.4272 11.4124 61.5081 11.0557 60.4697 11.0557V13.0557C61.0134 13.0557 61.4126 13.2262 61.7402 13.5538L63.1544 12.1396ZM60.4697 11.0557C59.4195 11.0557 58.4894 11.4079 57.7719 12.153L59.2125 13.5403C59.5106 13.2307 59.8988 13.0557 60.4697 13.0557V11.0557ZM57.7786 12.1461C57.0551 12.883 56.7012 13.8092 56.7012 14.8535H58.7012C58.7012 14.2963 58.8746 13.8846 59.2058 13.5473L57.7786 12.1461ZM56.7012 14.8535C56.7012 15.8979 57.0554 16.8232 57.7851 17.5528L59.1993 16.1386C58.8743 15.8136 58.7012 15.4107 58.7012 14.8535H56.7012ZM94.3662 8.36426L95.0835 7.66747L95.0784 7.66227L95.0733 7.65715L94.3662 8.36426ZM95.8604 22.5V23.5H96.8604V22.5H95.8604ZM90.4697 22.5H89.4697V23.5H90.4697V22.5ZM89.9424 12.627L89.2075 13.3053L89.2164 13.3147L89.9424 12.627ZM86.4414 22.5V23.5H87.4414V22.5H86.4414ZM81.0361 22.5H80.0361V23.5H81.0361V22.5ZM80.5088 12.627L79.7645 13.2949L79.7736 13.3049L79.7828 13.3147L80.5088 12.627ZM77.5938 12.6416L76.8866 11.9344L76.8777 11.9435L77.5938 12.6416ZM77.0225 22.5V23.5H78.0225V22.5H77.0225ZM71.6172 22.5H70.6172V23.5H71.6172V22.5ZM71.6172 7.20703V6.20703H70.6172V7.20703H71.6172ZM77.0225 7.20703H78.0225V6.20703H77.0225V7.20703ZM77.0225 8.52539H76.0225V11.0341L77.7482 9.21331L77.0225 8.52539ZM85.5771 9.21387L84.7192 9.72758L85.4696 10.9809L86.3665 9.82781L85.5771 9.21387ZM90.3965 7.84082C91.8012 7.84082 92.857 8.26923 93.6591 9.07136L95.0733 7.65715C93.8442 6.42804 92.2535 5.84082 90.3965 5.84082V7.84082ZM93.6489 9.06104C94.4302 9.86528 94.8604 10.9597 94.8604 12.4512H96.8604C96.8604 10.5442 96.2944 8.91402 95.0835 7.66747L93.6489 9.06104ZM94.8604 12.4512V22.5H96.8604V12.4512H94.8604ZM95.8604 21.5H90.4697V23.5H95.8604V21.5ZM91.4697 22.5V14.1064H89.4697V22.5H91.4697ZM91.4697 14.1064C91.4697 13.2906 91.2305 12.5326 90.6683 11.9392L89.2164 13.3147C89.3574 13.4635 89.4697 13.6918 89.4697 14.1064H91.4697ZM90.6772 11.9487C90.1212 11.3463 89.3927 11.0557 88.5801 11.0557V13.0557C88.8807 13.0557 89.0605 13.1459 89.2076 13.3052L90.6772 11.9487ZM88.5801 11.0557C87.7181 11.0557 86.9297 11.3251 86.3202 11.9345L87.7345 13.3487C87.9063 13.1769 88.153 13.0557 88.5801 13.0557V11.0557ZM86.3202 11.9345C85.7168 12.5379 85.4414 13.3128 85.4414 14.165H87.4414C87.4414 13.7673 87.5566 13.5266 87.7345 13.3487L86.3202 11.9345ZM85.4414 14.165V22.5H87.4414V14.165H85.4414ZM86.4414 21.5H81.0361V23.5H86.4414V21.5ZM82.0361 22.5V14.1064H80.0361V22.5H82.0361ZM82.0361 14.1064C82.0361 13.2906 81.7969 12.5326 81.2347 11.9392L79.7828 13.3147C79.9238 13.4635 80.0361 13.6918 80.0361 14.1064H82.0361ZM81.253 11.959C80.7001 11.3429 79.963 11.0557 79.1465 11.0557V13.0557C79.4628 13.0557 79.6339 13.1493 79.7645 13.2949L81.253 11.959ZM79.1465 11.0557C78.2845 11.0557 77.4961 11.3251 76.8866 11.9345L78.3009 13.3487C78.4727 13.1769 78.7194 13.0557 79.1465 13.0557V11.0557ZM76.8777 11.9435C76.288 12.5484 76.0225 13.3203 76.0225 14.165H78.0225C78.0225 13.7598 78.1378 13.5161 78.3098 13.3397L76.8777 11.9435ZM76.0225 14.165V22.5H78.0225V14.165H76.0225ZM77.0225 21.5H71.6172V23.5H77.0225V21.5ZM72.6172 22.5V7.20703H70.6172V22.5H72.6172ZM71.6172 8.20703H77.0225V6.20703H71.6172V8.20703ZM76.0225 7.20703V8.52539H78.0225V7.20703H76.0225ZM77.7482 9.21331C78.6204 8.2931 79.6748 7.84082 80.9775 7.84082V5.84082C79.1358 5.84082 77.5534 6.51159 76.2967 7.83747L77.7482 9.21331ZM80.9775 7.84082C82.8075 7.84082 83.9824 8.49712 84.7192 9.72758L86.4351 8.70015C85.2773 6.76655 83.3859 5.84082 80.9775 5.84082V7.84082ZM86.3665 9.82781C87.41 8.48622 88.7266 7.84082 90.3965 7.84082V5.84082C88.1015 5.84082 86.2053 6.77745 84.7878 8.59993L86.3665 9.82781ZM99.5518 21.3428L100.185 20.5691L100.185 20.5685L99.5518 21.3428ZM97.7061 17.666V16.666H96.7061V17.666H97.7061ZM103.023 17.666H104.023V16.666H103.023V17.666ZM103.36 18.4863L102.653 19.1934L102.669 19.2088L102.685 19.2235L103.36 18.4863ZM104.957 18.6035L105.531 19.4228L105.538 19.4172L104.957 18.6035ZM103.023 16.8604L103.222 15.8802L103.213 15.8785L103.023 16.8604ZM97.9111 11.8799L96.9111 11.8799L96.9112 11.8872L97.9111 11.8799ZM108.561 8.27637L109.188 7.49732L109.181 7.49181L108.561 8.27637ZM110.362 11.792V12.792H111.362V11.792H110.362ZM105.03 11.792H104.03V12.792H105.03V11.792ZM104.752 11.1475L104.045 11.8546L104.064 11.8742L104.085 11.8927L104.752 11.1475ZM103.463 11.0742L104.063 11.8742L104.078 11.8626L104.093 11.8503L103.463 11.0742ZM105.602 12.7734L105.396 13.7521L105.398 13.7524L105.602 12.7734ZM108.854 14.0771L109.395 13.2364L109.385 13.2301L108.854 14.0771ZM108.736 21.46L109.336 22.26L109.338 22.2584L108.736 21.46ZM104.151 21.8662C102.522 21.8662 101.222 21.4182 100.185 20.5691L98.9182 22.1165C100.362 23.2986 102.128 23.8662 104.151 23.8662V21.8662ZM100.185 20.5685C99.1602 19.7311 98.7061 18.7788 98.7061 17.666H96.7061C96.7061 19.4438 97.4824 20.9427 98.9189 22.117L100.185 20.5685ZM97.7061 18.666H103.023V16.666H97.7061V18.666ZM102.023 17.666C102.023 18.2492 102.238 18.7782 102.653 19.1934L104.067 17.7792C104.042 17.7534 104.035 17.7383 104.033 17.7329C104.03 17.7272 104.023 17.7087 104.023 17.666H102.023ZM102.685 19.2235C103.112 19.6154 103.64 19.8086 104.21 19.8086V17.8086C104.116 17.8086 104.077 17.7869 104.036 17.7492L102.685 19.2235ZM104.21 19.8086C104.662 19.8086 105.127 19.7054 105.53 19.4227L104.384 17.7843C104.397 17.7751 104.363 17.8086 104.21 17.8086V19.8086ZM105.538 19.4172C105.922 19.1434 106.265 18.7005 106.265 18.0908H104.265C104.265 18.0034 104.29 17.9176 104.33 17.851C104.366 17.7921 104.395 17.7759 104.376 17.7898L105.538 19.4172ZM106.265 18.0908C106.265 17.2723 105.661 16.7795 105.186 16.5184C104.68 16.2408 104.003 16.0385 103.222 15.8803L102.825 17.8404C103.538 17.9849 103.982 18.1391 104.223 18.2716C104.495 18.4207 104.265 18.3917 104.265 18.0908H106.265ZM103.213 15.8785C101.628 15.5725 100.564 15.0536 99.9017 14.4082C99.2649 13.7879 98.9192 12.9737 98.9111 11.8726L96.9112 11.8872C96.9226 13.4521 97.4387 14.801 98.506 15.8408C99.5477 16.8556 101.03 17.4939 102.834 17.8422L103.213 15.8785ZM98.9111 11.8799C98.9111 10.5689 99.3816 9.64069 100.303 8.96621L99.1224 7.35215C97.6418 8.43548 96.9111 9.9877 96.9111 11.8799H98.9111ZM100.303 8.96621C101.308 8.23143 102.552 7.84082 104.093 7.84082V5.84082C102.196 5.84082 100.521 6.32912 99.1224 7.35215L100.303 8.96621ZM104.093 7.84082C105.67 7.84082 106.931 8.26331 107.94 9.06093L109.181 7.49181C107.768 6.37536 106.051 5.84082 104.093 5.84082V7.84082ZM107.934 9.05538C108.931 9.85813 109.362 10.7566 109.362 11.792H111.362C111.362 10.0734 110.593 8.62819 109.188 7.49736L107.934 9.05538ZM110.362 10.792H105.03V12.792H110.362V10.792ZM106.03 11.792C106.03 11.2628 105.83 10.7702 105.419 10.4022L104.085 11.8927C104.082 11.8901 104.075 11.8831 104.066 11.8711C104.057 11.859 104.049 11.8448 104.043 11.8295C104.029 11.7969 104.03 11.7792 104.03 11.792H106.03ZM105.459 10.4404C105.069 10.0504 104.572 9.88379 104.063 9.88379V11.8838C104.101 11.8838 104.106 11.8895 104.09 11.8836C104.083 11.8808 104.074 11.8764 104.065 11.8703C104.055 11.8643 104.049 11.8584 104.045 11.8546L105.459 10.4404ZM104.063 9.88379C103.64 9.88379 103.202 9.99736 102.832 10.2981L104.093 11.8503C104.083 11.8591 104.071 11.8667 104.06 11.8729C104.048 11.8791 104.039 11.8827 104.032 11.8846C104.02 11.8884 104.028 11.8838 104.063 11.8838V9.88379ZM102.863 10.2742C102.487 10.5561 102.229 10.9849 102.229 11.5137H104.229C104.229 11.58 104.212 11.6624 104.169 11.7426C104.129 11.8193 104.081 11.8604 104.063 11.8742L102.863 10.2742ZM102.229 11.5137C102.229 12.3576 102.887 12.8452 103.353 13.0927C103.873 13.3687 104.574 13.5797 105.396 13.7521L105.807 11.7948C105.047 11.6352 104.562 11.4702 104.291 11.3262C103.966 11.1538 104.229 11.1776 104.229 11.5137H102.229ZM105.398 13.7524C106.455 13.9728 107.428 14.3634 108.322 14.9242L109.385 13.2301C108.287 12.5409 107.091 12.0624 105.806 11.7945L105.398 13.7524ZM108.312 14.9179C109.125 15.4413 109.582 16.2666 109.582 17.6074H111.582C111.582 15.7256 110.887 14.1974 109.395 13.2364L108.312 14.9179ZM109.582 17.6074C109.582 18.9578 109.096 19.9365 108.134 20.6615L109.338 22.2584C110.838 21.128 111.582 19.5383 111.582 17.6074H109.582ZM108.136 20.66C107.086 21.448 105.777 21.8662 104.151 21.8662V23.8662C106.139 23.8662 107.887 23.3469 109.336 22.26L108.136 20.66ZM127.105 9.12598L127.849 8.45778L127.845 8.45283L127.105 9.12598ZM127.105 20.5664L127.847 21.2372L127.852 21.2322L127.105 20.5664ZM118.097 21.3867L118.773 20.6501L117.097 19.1109V21.3867H118.097ZM118.097 28.1982V29.1982H119.097V28.1982H118.097ZM112.691 28.1982H111.691V29.1982H112.691V28.1982ZM112.691 7.20703V6.20703H111.691V7.20703H112.691ZM118.097 7.20703H119.097V6.20703H118.097V7.20703ZM118.097 8.30566H117.097V10.5802L118.773 9.04254L118.097 8.30566ZM118.888 16.8457L119.601 16.1452L119.595 16.1386L118.888 16.8457ZM122.843 16.8457L123.55 17.5528L123.556 17.5463L123.563 17.5396L122.843 16.8457ZM122.843 12.8467L123.569 12.1593L123.56 12.1493L123.55 12.1396L122.843 12.8467ZM118.888 12.8467L119.601 13.5473L119.601 13.5471L118.888 12.8467ZM121.935 7.84082C123.714 7.84082 125.169 8.48393 126.366 9.79912L127.845 8.45283C126.269 6.72115 124.277 5.84082 121.935 5.84082V7.84082ZM126.361 9.79416C127.556 11.1242 128.171 12.7824 128.171 14.8389H130.171C130.171 12.3445 129.409 10.1942 127.849 8.4578L126.361 9.79416ZM128.171 14.8389C128.171 16.8953 127.556 18.5598 126.359 19.9006L127.852 21.2322C129.409 19.4871 130.171 17.3333 130.171 14.8389H128.171ZM126.364 19.8956C125.166 21.22 123.711 21.8662 121.935 21.8662V23.8662C124.279 23.8662 126.272 22.9792 127.847 21.2372L126.364 19.8956ZM121.935 21.8662C120.696 21.8662 119.659 21.4637 118.773 20.6501L117.42 22.1233C118.683 23.2824 120.205 23.8662 121.935 23.8662V21.8662ZM117.097 21.3867V28.1982H119.097V21.3867H117.097ZM118.097 27.1982H112.691V29.1982H118.097V27.1982ZM113.691 28.1982V7.20703H111.691V28.1982H113.691ZM112.691 8.20703H118.097V6.20703H112.691V8.20703ZM117.097 7.20703V8.30566H119.097V7.20703H117.097ZM118.773 9.04254C119.646 8.24151 120.681 7.84082 121.935 7.84082V5.84082C120.2 5.84082 118.676 6.4167 117.421 7.56879L118.773 9.04254ZM118.174 17.5462C118.896 18.2822 119.821 18.6367 120.865 18.6367V16.6367C120.308 16.6367 119.914 16.4639 119.601 16.1452L118.174 17.5462ZM120.865 18.6367C121.904 18.6367 122.823 18.2799 123.55 17.5528L122.136 16.1386C121.808 16.4661 121.409 16.6367 120.865 16.6367V18.6367ZM123.563 17.5396C124.272 16.804 124.619 15.8861 124.619 14.8535H122.619C122.619 15.403 122.449 15.8131 122.123 16.1518L123.563 17.5396ZM124.619 14.8535C124.619 13.8211 124.272 12.902 123.569 12.1593L122.116 13.5341C122.449 13.8851 122.619 14.3039 122.619 14.8535H124.619ZM123.55 12.1396C122.823 11.4124 121.904 11.0557 120.865 11.0557V13.0557C121.409 13.0557 121.808 13.2262 122.136 13.5538L123.55 12.1396ZM120.865 11.0557C119.821 11.0557 118.896 11.4102 118.174 12.1462L119.601 13.5471C119.914 13.2285 120.308 13.0557 120.865 13.0557V11.0557ZM118.174 12.1461C117.451 12.883 117.097 13.8092 117.097 14.8535H119.097C119.097 14.2963 119.27 13.8846 119.601 13.5473L118.174 12.1461ZM117.097 14.8535C117.097 15.8979 117.451 16.8232 118.181 17.5528L119.595 16.1386C119.27 15.8136 119.097 15.4107 119.097 14.8535H117.097ZM141.681 8.30566L141.005 9.04254L142.681 10.5802V8.30566H141.681ZM141.681 7.20703V6.20703H140.681V7.20703H141.681ZM147.086 7.20703H148.086V6.20703H147.086V7.20703ZM147.086 22.5V23.5H148.086V22.5H147.086ZM141.681 22.5H140.681V23.5H141.681V22.5ZM141.681 21.3867H142.681V19.1414L141.012 20.6434L141.681 21.3867ZM137.843 22.8662V23.8663L137.856 23.8661L137.843 22.8662ZM132.687 20.5664L133.431 19.8982L133.428 19.8956L132.687 20.5664ZM132.687 9.12598L133.428 9.79677L133.428 9.79652L132.687 9.12598ZM136.949 16.8457L137.67 16.1521L137.663 16.1453L137.656 16.1386L136.949 16.8457ZM140.904 16.8457L141.611 17.5528L141.618 17.5463L141.624 17.5396L140.904 16.8457ZM140.904 12.8467L141.631 12.1593L141.621 12.1493L141.611 12.1396L140.904 12.8467ZM136.949 12.8467L137.663 13.5473L137.67 13.5403L136.949 12.8467ZM142.681 8.30566V7.20703H140.681V8.30566H142.681ZM141.681 8.20703H147.086V6.20703H141.681V8.20703ZM146.086 7.20703V22.5H148.086V7.20703H146.086ZM147.086 21.5H141.681V23.5H147.086V21.5ZM142.681 22.5V21.3867H140.681V22.5H142.681ZM141.012 20.6434C140.123 21.4432 139.079 21.8499 137.83 21.8663L137.856 23.8661C139.576 23.8435 141.09 23.2638 142.35 22.13L141.012 20.6434ZM137.843 21.8662C136.066 21.8662 134.618 21.2203 133.431 19.8982L131.943 21.2346C133.509 22.979 135.498 23.8662 137.843 23.8662V21.8662ZM133.428 19.8956C132.226 18.5662 131.606 16.9044 131.606 14.8389H129.606C129.606 17.3437 130.374 19.5002 131.945 21.2372L133.428 19.8956ZM131.606 14.8389C131.606 12.7844 132.225 11.127 133.428 9.79677L131.945 8.45519C130.375 10.1913 129.606 12.3426 129.606 14.8389H131.606ZM133.428 9.79652C134.615 8.48366 136.064 7.84082 137.843 7.84082V5.84082C135.501 5.84082 133.512 6.72141 131.945 8.45544L133.428 9.79652ZM137.843 7.84082C139.096 7.84082 140.132 8.24151 141.005 9.04254L142.357 7.56879C141.101 6.4167 139.578 5.84082 137.843 5.84082V7.84082ZM136.229 17.5393C136.946 18.2844 137.877 18.6367 138.927 18.6367V16.6367C138.356 16.6367 137.968 16.4617 137.67 16.1521L136.229 17.5393ZM138.927 18.6367C139.965 18.6367 140.884 18.2799 141.611 17.5528L140.197 16.1386C139.87 16.4661 139.47 16.6367 138.927 16.6367V18.6367ZM141.624 17.5396C142.333 16.804 142.681 15.8861 142.681 14.8535H140.681C140.681 15.403 140.511 15.8131 140.184 16.1518L141.624 17.5396ZM142.681 14.8535C142.681 13.8211 142.333 12.902 141.631 12.1593L140.178 13.5341C140.51 13.8851 140.681 14.3039 140.681 14.8535H142.681ZM141.611 12.1396C140.884 11.4124 139.965 11.0557 138.927 11.0557V13.0557C139.47 13.0557 139.87 13.2262 140.197 13.5538L141.611 12.1396ZM138.927 11.0557C137.877 11.0557 136.946 11.4079 136.229 12.153L137.67 13.5403C137.968 13.2307 138.356 13.0557 138.927 13.0557V11.0557ZM136.236 12.1461C135.512 12.883 135.158 13.8092 135.158 14.8535H137.158C137.158 14.2963 137.332 13.8846 137.663 13.5473L136.236 12.1461ZM135.158 14.8535C135.158 15.8979 135.512 16.8232 136.242 17.5528L137.656 16.1386C137.331 15.8136 137.158 15.4107 137.158 14.8535H135.158ZM151.598 20.5664L152.296 19.8504L152.291 19.8462L151.598 20.5664ZM151.598 9.12598L150.906 8.40352L150.904 8.40574L151.598 9.12598ZM163.126 8.84766L162.471 9.60319L162.473 9.60523L163.126 8.84766ZM165.777 13.9453V14.9453H166.887L166.772 13.8416L165.777 13.9453ZM160.167 13.9453L159.213 14.2464L159.434 14.9453H160.167V13.9453ZM155.538 12.8467L154.824 12.1462L154.818 12.1527L154.812 12.1593L155.538 12.8467ZM155.538 16.8457L154.818 17.5396L154.824 17.5462L155.538 16.8457ZM159.156 17.124L159.737 17.9378L159.741 17.9356L159.156 17.124ZM160.167 15.7471V14.7471H159.442L159.217 15.4358L160.167 15.7471ZM165.777 15.7471L166.772 15.8508L166.887 14.7471H165.777V15.7471ZM163.126 20.8447L162.473 20.0871L162.466 20.0936L163.126 20.8447ZM157.516 21.8662C155.38 21.8662 153.665 21.186 152.296 19.8505L150.899 21.2824C152.674 23.0132 154.905 23.8662 157.516 23.8662V21.8662ZM152.291 19.8462C150.903 18.5085 150.21 16.8627 150.21 14.8389H148.21C148.21 17.3854 149.109 19.5579 150.904 21.2866L152.291 19.8462ZM150.21 14.8389C150.21 12.8262 150.902 11.1847 152.291 9.84622L150.904 8.40574C149.11 10.1336 148.21 12.3008 148.21 14.8389H150.21ZM152.289 9.84843C153.681 8.51604 155.4 7.84082 157.516 7.84082V5.84082C154.924 5.84082 152.698 6.68904 150.906 8.40353L152.289 9.84843ZM157.516 7.84082C159.492 7.84082 161.124 8.43546 162.471 9.60319L163.781 8.09212C162.042 6.58408 159.934 5.84082 157.516 5.84082V7.84082ZM162.473 9.60523C163.831 10.7747 164.594 12.239 164.783 14.049L166.772 13.8416C166.531 11.5305 165.527 9.59637 163.779 8.09008L162.473 9.60523ZM165.777 12.9453H160.167V14.9453H165.777V12.9453ZM161.121 13.6442C160.878 12.8754 160.413 12.2448 159.755 11.7715L158.587 13.3945C158.906 13.6244 159.105 13.902 159.213 14.2464L161.121 13.6442ZM159.755 11.7715C159.093 11.2945 158.336 11.0557 157.516 11.0557V13.0557C157.926 13.0557 158.273 13.1684 158.587 13.3945L159.755 11.7715ZM157.516 11.0557C156.471 11.0557 155.547 11.4102 154.824 12.1462L156.252 13.5471C156.565 13.2285 156.958 13.0557 157.516 13.0557V11.0557ZM154.812 12.1593C154.109 12.902 153.762 13.8211 153.762 14.8535H155.762C155.762 14.3039 155.932 13.8851 156.264 13.5341L154.812 12.1593ZM153.762 14.8535C153.762 15.8861 154.109 16.804 154.818 17.5396L156.258 16.1518C155.932 15.8131 155.762 15.403 155.762 14.8535H153.762ZM154.824 17.5462C155.547 18.2822 156.471 18.6367 157.516 18.6367V16.6367C156.958 16.6367 156.565 16.4639 156.252 16.1452L154.824 17.5462ZM157.516 18.6367C158.329 18.6367 159.081 18.4065 159.737 17.9378L158.575 16.3103C158.274 16.5251 157.933 16.6367 157.516 16.6367V18.6367ZM159.741 17.9356C160.399 17.4615 160.865 16.8281 161.117 16.0584L159.217 15.4358C159.098 15.7988 158.89 16.0834 158.572 16.3125L159.741 17.9356ZM160.167 16.7471H165.777V14.7471H160.167V16.7471ZM164.783 15.6434C164.594 17.4534 163.831 18.9177 162.473 20.0872L163.779 21.6023C165.527 20.096 166.531 18.1618 166.772 15.8508L164.783 15.6434ZM162.466 20.0936C161.131 21.2673 159.501 21.8662 157.516 21.8662V23.8662C159.944 23.8662 162.055 23.1175 163.786 21.5958L162.466 20.0936ZM183.399 16.377V17.377H184.169L184.366 16.6328L183.399 16.377ZM172.691 16.377V15.377H171.291L171.746 16.7018L172.691 16.377ZM176.705 18.0322L176.326 17.1066L176.319 17.1098L176.705 18.0322ZM177.584 17.4023V16.4023H177.037L176.742 16.8633L177.584 17.4023ZM183.253 17.4023L184.202 17.7169L184.638 16.4023H183.253V17.4023ZM180.279 21.3574L179.713 20.5332L179.708 20.5366L180.279 21.3574ZM169.293 20.5664L169.991 19.8504L169.987 19.8462L169.293 20.5664ZM169.293 9.12598L168.602 8.40352L168.599 8.40574L169.293 9.12598ZM181.158 9.14062L181.856 8.42474L181.856 8.42468L181.158 9.14062ZM172.691 13.2861L171.759 12.9247L171.231 14.2861H172.691V13.2861ZM177.76 13.2861V14.2861H179.147L178.708 12.9699L177.76 13.2861ZM176.778 11.9092L176.181 12.7113L176.192 12.7194L176.778 11.9092ZM182.531 14.9707C182.531 15.5447 182.488 15.9128 182.433 16.1211L184.366 16.6328C184.487 16.1771 184.531 15.6076 184.531 14.9707H182.531ZM183.399 15.377H172.691V17.377H183.399V15.377ZM171.746 16.7018C172.017 17.492 172.458 18.1629 173.109 18.6293C173.761 19.0959 174.537 19.2959 175.372 19.2959V17.2959C174.859 17.2959 174.515 17.1761 174.273 17.003C174.031 16.8297 173.805 16.5412 173.637 16.0521L171.746 16.7018ZM175.372 19.2959C175.969 19.2959 176.545 19.1832 177.091 18.9547L176.319 17.1098C176.025 17.2328 175.712 17.2959 175.372 17.2959V19.2959ZM177.084 18.9578C177.599 18.7471 178.11 18.4351 178.426 17.9414L176.742 16.8633C176.746 16.8559 176.732 16.8817 176.665 16.9301C176.597 16.9789 176.489 17.0403 176.326 17.1067L177.084 18.9578ZM177.584 18.4023H183.253V16.4023H177.584V18.4023ZM182.304 17.0878C181.826 18.5307 180.969 19.6702 179.713 20.5332L180.846 22.1816C182.461 21.072 183.587 19.5748 184.202 17.7169L182.304 17.0878ZM179.708 20.5366C178.447 21.4144 176.961 21.8662 175.211 21.8662V23.8662C177.328 23.8662 179.221 23.3122 180.851 22.1782L179.708 20.5366ZM175.211 21.8662C173.076 21.8662 171.361 21.186 169.991 19.8505L168.595 21.2824C170.37 23.0132 172.6 23.8662 175.211 23.8662V21.8662ZM169.987 19.8462C168.598 18.5085 167.905 16.8627 167.905 14.8389H165.905C165.905 17.3854 166.804 19.5579 168.599 21.2866L169.987 19.8462ZM167.905 14.8389C167.905 12.8262 168.597 11.1847 169.987 9.84622L168.599 8.40574C166.805 10.1336 165.905 12.3008 165.905 14.8389H167.905ZM169.984 9.84843C171.377 8.51604 173.096 7.84082 175.211 7.84082V5.84082C172.619 5.84082 170.393 6.68904 168.602 8.40353L169.984 9.84843ZM175.211 7.84082C177.368 7.84082 179.092 8.52262 180.46 9.85657L181.856 8.42468C180.08 6.69222 177.839 5.84082 175.211 5.84082V7.84082ZM180.46 9.85651C181.836 11.1989 182.531 12.8783 182.531 14.9707H184.531C184.531 12.3756 183.644 10.1682 181.856 8.42474L180.46 9.85651ZM175.211 10.3965C174.429 10.3965 173.703 10.6069 173.088 11.0689C172.481 11.5241 172.052 12.1698 171.759 12.9247L173.624 13.6475C173.819 13.1427 174.055 12.8436 174.287 12.6689C174.511 12.501 174.801 12.3965 175.211 12.3965V10.3965ZM172.691 14.2861H177.76V12.2861H172.691V14.2861ZM178.708 12.9699C178.453 12.2043 178.008 11.5648 177.364 11.099L176.192 12.7194C176.466 12.9176 176.676 13.1961 176.811 13.6024L178.708 12.9699ZM177.376 11.1071C176.74 10.6335 176.007 10.3965 175.211 10.3965V12.3965C175.587 12.3965 175.899 12.5012 176.181 12.7112L177.376 11.1071ZM187.135 20.5664L187.833 19.8504L187.828 19.8462L187.135 20.5664ZM187.135 9.12598L186.443 8.40352L186.441 8.40574L187.135 9.12598ZM198.663 8.84766L198.008 9.60319L198.01 9.60523L198.663 8.84766ZM201.314 13.9453V14.9453H202.424L202.309 13.8416L201.314 13.9453ZM195.704 13.9453L194.751 14.2464L194.971 14.9453H195.704V13.9453ZM191.075 12.8467L190.362 12.1462L190.355 12.1527L190.349 12.1593L191.075 12.8467ZM191.075 16.8457L190.355 17.5396L190.362 17.5462L191.075 16.8457ZM194.693 17.124L195.275 17.9378L195.278 17.9356L194.693 17.124ZM195.704 15.7471V14.7471H194.979L194.754 15.4358L195.704 15.7471ZM201.314 15.7471L202.309 15.8508L202.424 14.7471H201.314V15.7471ZM198.663 20.8447L198.01 20.0871L198.003 20.0936L198.663 20.8447ZM193.053 21.8662C190.917 21.8662 189.203 21.186 187.833 19.8505L186.437 21.2824C188.212 23.0132 190.442 23.8662 193.053 23.8662V21.8662ZM187.828 19.8462C186.44 18.5085 185.747 16.8627 185.747 14.8389H183.747C183.747 17.3854 184.646 19.5579 186.441 21.2866L187.828 19.8462ZM185.747 14.8389C185.747 12.8262 186.439 11.1847 187.828 9.84622L186.441 8.40574C184.647 10.1336 183.747 12.3008 183.747 14.8389H185.747ZM187.826 9.84843C189.218 8.51604 190.938 7.84082 193.053 7.84082V5.84082C190.461 5.84082 188.235 6.68904 186.443 8.40353L187.826 9.84843ZM193.053 7.84082C195.029 7.84082 196.661 8.43546 198.008 9.60319L199.318 8.09212C197.579 6.58408 195.471 5.84082 193.053 5.84082V7.84082ZM198.01 9.60523C199.368 10.7747 200.131 12.239 200.32 14.049L202.309 13.8416C202.068 11.5305 201.064 9.59637 199.316 8.09008L198.01 9.60523ZM201.314 12.9453H195.704V14.9453H201.314V12.9453ZM196.658 13.6442C196.415 12.8754 195.95 12.2448 195.292 11.7715L194.124 13.3945C194.443 13.6244 194.642 13.902 194.751 14.2464L196.658 13.6442ZM195.292 11.7715C194.63 11.2945 193.873 11.0557 193.053 11.0557V13.0557C193.463 13.0557 193.81 13.1684 194.124 13.3945L195.292 11.7715ZM193.053 11.0557C192.008 11.0557 191.084 11.4102 190.362 12.1462L191.789 13.5471C192.102 13.2285 192.496 13.0557 193.053 13.0557V11.0557ZM190.349 12.1593C189.646 12.902 189.299 13.8211 189.299 14.8535H191.299C191.299 14.3039 191.469 13.8851 191.801 13.5341L190.349 12.1593ZM189.299 14.8535C189.299 15.8861 189.646 16.804 190.355 17.5396L191.795 16.1518C191.469 15.8131 191.299 15.403 191.299 14.8535H189.299ZM190.362 17.5462C191.084 18.2822 192.008 18.6367 193.053 18.6367V16.6367C192.496 16.6367 192.102 16.4639 191.789 16.1452L190.362 17.5462ZM193.053 18.6367C193.866 18.6367 194.618 18.4065 195.275 17.9378L194.112 16.3103C193.811 16.5251 193.47 16.6367 193.053 16.6367V18.6367ZM195.278 17.9356C195.936 17.4615 196.402 16.8281 196.654 16.0584L194.754 15.4358C194.635 15.7988 194.427 16.0834 194.109 16.3125L195.278 17.9356ZM195.704 16.7471H201.314V14.7471H195.704V16.7471ZM200.32 15.6434C200.131 17.4534 199.368 18.9177 198.01 20.0872L199.316 21.6023C201.064 20.096 202.068 18.1618 202.309 15.8508L200.32 15.6434ZM198.003 20.0936C196.668 21.2673 195.038 21.8662 193.053 21.8662V23.8662C195.481 23.8662 197.592 23.1175 199.323 21.5958L198.003 20.0936ZM208.712 7.20703H209.712V6.20703H208.712V7.20703ZM208.712 8.87695H207.712V11.5672L209.469 9.53012L208.712 8.87695ZM212.521 6.95801H213.521V5.95801H212.521V6.95801ZM212.521 12.5098V13.5098H213.521V12.5098H212.521ZM209.693 13.3447L209.051 12.5783L209.045 12.5831L209.693 13.3447ZM208.712 22.5V23.5H209.712V22.5H208.712ZM203.307 22.5H202.307V23.5H203.307V22.5ZM203.307 7.20703V6.20703H202.307V7.20703H203.307ZM207.712 7.20703V8.87695H209.712V7.20703H207.712ZM209.469 9.53012C210.42 8.42806 211.428 7.95801 212.521 7.95801V5.95801C210.742 5.95801 209.211 6.76725 207.955 8.22378L209.469 9.53012ZM211.521 6.95801V12.5098H213.521V6.95801H211.521ZM212.521 11.5098C211.16 11.5098 209.956 11.8194 209.051 12.5784L210.336 14.1111C210.758 13.7568 211.44 13.5098 212.521 13.5098V11.5098ZM209.045 12.5831C208.133 13.359 207.712 14.428 207.712 15.6592H209.712C209.712 14.9177 209.945 14.4437 210.341 14.1064L209.045 12.5831ZM207.712 15.6592V22.5H209.712V15.6592H207.712ZM208.712 21.5H203.307V23.5H208.712V21.5ZM204.307 22.5V7.20703H202.307V22.5H204.307ZM203.307 8.20703H208.712V6.20703H203.307V8.20703ZM229.835 16.377V17.377H230.605L230.802 16.6328L229.835 16.377ZM219.127 16.377V15.377H217.726L218.181 16.7018L219.127 16.377ZM223.141 18.0322L222.762 17.1066L222.754 17.1098L223.141 18.0322ZM224.02 17.4023V16.4023H223.472L223.177 16.8633L224.02 17.4023ZM229.688 17.4023L230.638 17.7169L231.073 16.4023H229.688V17.4023ZM226.715 21.3574L226.149 20.5332L226.144 20.5366L226.715 21.3574ZM215.729 20.5664L216.427 19.8504L216.422 19.8462L215.729 20.5664ZM215.729 9.12598L215.037 8.40352L215.035 8.40574L215.729 9.12598ZM227.594 9.14062L228.292 8.42474L228.292 8.42468L227.594 9.14062ZM219.127 13.2861L218.195 12.9247L217.667 14.2861H219.127V13.2861ZM224.195 13.2861V14.2861H225.583L225.144 12.9699L224.195 13.2861ZM223.214 11.9092L222.617 12.7113L222.628 12.7194L223.214 11.9092ZM228.967 14.9707C228.967 15.5447 228.923 15.9128 228.868 16.1211L230.802 16.6328C230.922 16.1771 230.967 15.6076 230.967 14.9707H228.967ZM229.835 15.377H219.127V17.377H229.835V15.377ZM218.181 16.7018C218.453 17.492 218.893 18.1629 219.545 18.6293C220.196 19.0959 220.973 19.2959 221.808 19.2959V17.2959C221.295 17.2959 220.951 17.1761 220.709 17.003C220.467 16.8297 220.241 16.5412 220.073 16.0521L218.181 16.7018ZM221.808 19.2959C222.405 19.2959 222.981 19.1832 223.527 18.9547L222.754 17.1098C222.461 17.2328 222.148 17.2959 221.808 17.2959V19.2959ZM223.519 18.9578C224.034 18.7471 224.546 18.4351 224.862 17.9414L223.177 16.8633C223.182 16.8559 223.168 16.8817 223.1 16.9301C223.032 16.9789 222.924 17.0403 222.762 17.1067L223.519 18.9578ZM224.02 18.4023H229.688V16.4023H224.02V18.4023ZM228.739 17.0878C228.261 18.5307 227.405 19.6702 226.149 20.5332L227.281 22.1816C228.896 21.072 230.022 19.5748 230.638 17.7169L228.739 17.0878ZM226.144 20.5366C224.882 21.4144 223.397 21.8662 221.646 21.8662V23.8662C223.763 23.8662 225.657 23.3122 227.286 22.1782L226.144 20.5366ZM221.646 21.8662C219.511 21.8662 217.796 21.186 216.427 19.8505L215.03 21.2824C216.805 23.0132 219.036 23.8662 221.646 23.8662V21.8662ZM216.422 19.8462C215.033 18.5085 214.341 16.8627 214.341 14.8389H212.341C212.341 17.3854 213.24 19.5579 215.035 21.2866L216.422 19.8462ZM214.341 14.8389C214.341 12.8262 215.033 11.1847 216.422 9.84622L215.035 8.40574C213.241 10.1336 212.341 12.3008 212.341 14.8389H214.341ZM216.42 9.84843C217.812 8.51604 219.531 7.84082 221.646 7.84082V5.84082C219.055 5.84082 216.829 6.68904 215.037 8.40353L216.42 9.84843ZM221.646 7.84082C223.804 7.84082 225.528 8.52262 226.896 9.85657L228.292 8.42468C226.515 6.69222 224.274 5.84082 221.646 5.84082V7.84082ZM226.896 9.85651C228.272 11.1989 228.967 12.8783 228.967 14.9707H230.967C230.967 12.3756 230.08 10.1682 228.292 8.42474L226.896 9.85651ZM221.646 10.3965C220.865 10.3965 220.139 10.6069 219.523 11.0689C218.916 11.5241 218.487 12.1698 218.195 12.9247L220.059 13.6475C220.255 13.1427 220.49 12.8436 220.723 12.6689C220.947 12.501 221.237 12.3965 221.646 12.3965V10.3965ZM219.127 14.2861H224.195V12.2861H219.127V14.2861ZM225.144 12.9699C224.889 12.2043 224.444 11.5648 223.8 11.099L222.628 12.7194C222.902 12.9176 223.111 13.1961 223.247 13.6024L225.144 12.9699ZM223.811 11.1071C223.175 10.6335 222.442 10.3965 221.646 10.3965V12.3965C222.023 12.3965 222.335 12.5012 222.617 12.7112L223.811 11.1071ZM242.345 8.30566L241.669 9.04254L243.345 10.5802V8.30566H242.345ZM242.345 7.20703V6.20703H241.345V7.20703H242.345ZM247.75 7.20703H248.75V6.20703H247.75V7.20703ZM247.75 22.5V23.5H248.75V22.5H247.75ZM242.345 22.5H241.345V23.5H242.345V22.5ZM242.345 21.3867H243.345V19.1414L241.676 20.6434L242.345 21.3867ZM238.507 22.8662V23.8663L238.52 23.8661L238.507 22.8662ZM233.351 20.5664L234.095 19.8982L234.092 19.8956L233.351 20.5664ZM233.351 9.12598L234.092 9.79677L234.092 9.79652L233.351 9.12598ZM237.613 16.8457L238.334 16.1521L238.327 16.1453L238.32 16.1386L237.613 16.8457ZM241.568 16.8457L242.275 17.5528L242.282 17.5463L242.288 17.5396L241.568 16.8457ZM241.568 12.8467L242.295 12.1593L242.285 12.1493L242.275 12.1396L241.568 12.8467ZM237.613 12.8467L238.327 13.5473L238.334 13.5403L237.613 12.8467ZM243.345 8.30566V7.20703H241.345V8.30566H243.345ZM242.345 8.20703H247.75V6.20703H242.345V8.20703ZM246.75 7.20703V22.5H248.75V7.20703H246.75ZM247.75 21.5H242.345V23.5H247.75V21.5ZM243.345 22.5V21.3867H241.345V22.5H243.345ZM241.676 20.6434C240.787 21.4432 239.743 21.8499 238.494 21.8663L238.52 23.8661C240.24 23.8435 241.754 23.2638 243.014 22.13L241.676 20.6434ZM238.507 21.8662C236.73 21.8662 235.282 21.2203 234.095 19.8982L232.607 21.2346C234.173 22.979 236.162 23.8662 238.507 23.8662V21.8662ZM234.092 19.8956C232.89 18.5662 232.271 16.9044 232.271 14.8389H230.271C230.271 17.3437 231.038 19.5002 232.609 21.2372L234.092 19.8956ZM232.271 14.8389C232.271 12.7844 232.889 11.127 234.092 9.79677L232.609 8.45519C231.039 10.1913 230.271 12.3426 230.271 14.8389H232.271ZM234.092 9.79652C235.279 8.48366 236.728 7.84082 238.507 7.84082V5.84082C236.165 5.84082 234.176 6.72141 232.609 8.45544L234.092 9.79652ZM238.507 7.84082C239.76 7.84082 240.796 8.24151 241.669 9.04254L243.021 7.56879C241.765 6.4167 240.242 5.84082 238.507 5.84082V7.84082ZM236.893 17.5393C237.61 18.2844 238.541 18.6367 239.591 18.6367V16.6367C239.02 16.6367 238.632 16.4617 238.334 16.1521L236.893 17.5393ZM239.591 18.6367C240.629 18.6367 241.548 18.2799 242.275 17.5528L240.861 16.1386C240.534 16.4661 240.134 16.6367 239.591 16.6367V18.6367ZM242.288 17.5396C242.997 16.804 243.345 15.8861 243.345 14.8535H241.345C241.345 15.403 241.175 15.8131 240.848 16.1518L242.288 17.5396ZM243.345 14.8535C243.345 13.8211 242.998 12.902 242.295 12.1593L240.842 13.5341C241.174 13.8851 241.345 14.3039 241.345 14.8535H243.345ZM242.275 12.1396C241.548 11.4124 240.629 11.0557 239.591 11.0557V13.0557C240.134 13.0557 240.534 13.2262 240.861 13.5538L242.275 12.1396ZM239.591 11.0557C238.541 11.0557 237.61 11.4079 236.893 12.153L238.334 13.5403C238.632 13.2307 239.02 13.0557 239.591 13.0557V11.0557ZM236.9 12.1461C236.176 12.883 235.822 13.8092 235.822 14.8535H237.822C237.822 14.2963 237.996 13.8846 238.327 13.5473L236.9 12.1461ZM235.822 14.8535C235.822 15.8979 236.177 16.8232 236.906 17.5528L238.32 16.1386C237.995 15.8136 237.822 15.4107 237.822 14.8535H235.822ZM257.638 7.20703H256.638V8.20703H257.638V7.20703ZM260.318 7.20703H261.318V6.20703H260.318V7.20703ZM260.318 12.1143V13.1143H261.318V12.1143H260.318ZM257.638 12.1143V11.1143H256.638V12.1143H257.638ZM257.638 22.5V23.5H258.638V22.5H257.638ZM252.247 22.5H251.247V23.5H252.247V22.5ZM252.247 12.1143H253.247V11.1143H252.247V12.1143ZM249.757 12.1143H248.757V13.1143H249.757V12.1143ZM249.757 7.20703V6.20703H248.757V7.20703H249.757ZM252.247 7.20703V8.20703H253.247V7.20703H252.247ZM252.247 3.89648L252.03 2.92042L251.247 3.09479V3.89648H252.247ZM257.638 2.69531H258.638V1.44796L257.42 1.71925L257.638 2.69531ZM257.638 8.20703H260.318V6.20703H257.638V8.20703ZM259.318 7.20703V12.1143H261.318V7.20703H259.318ZM260.318 11.1143H257.638V13.1143H260.318V11.1143ZM256.638 12.1143V22.5H258.638V12.1143H256.638ZM257.638 21.5H252.247V23.5H257.638V21.5ZM253.247 22.5V12.1143H251.247V22.5H253.247ZM252.247 11.1143H249.757V13.1143H252.247V11.1143ZM250.757 12.1143V7.20703H248.757V12.1143H250.757ZM249.757 8.20703H252.247V6.20703H249.757V8.20703ZM253.247 7.20703V3.89648H251.247V7.20703H253.247ZM252.465 4.87255L257.855 3.67137L257.42 1.71925L252.03 2.92042L252.465 4.87255ZM256.638 2.69531V7.20703H258.638V2.69531H256.638ZM263.365 20.5664L262.672 21.2866L263.365 20.5664ZM263.365 9.12598L262.676 8.4014L262.672 8.40574L263.365 9.12598ZM275.216 9.12598L275.91 8.40573L275.907 8.40353L275.216 9.12598ZM267.306 16.8457L266.586 17.5396L266.592 17.5462L267.306 16.8457ZM271.275 16.8457L271.982 17.5528L271.989 17.5463L271.995 17.5396L271.275 16.8457ZM271.275 12.8467L272.002 12.1593L271.992 12.1493L271.982 12.1396L271.275 12.8467ZM267.306 12.8467L266.592 12.1462L266.586 12.1527L266.579 12.1593L267.306 12.8467ZM276.604 14.8389C276.604 16.8627 275.911 18.5085 274.522 19.8462L275.91 21.2866C277.704 19.5579 278.604 17.3854 278.604 14.8389H276.604ZM274.522 19.8462C273.13 21.1874 271.411 21.8662 269.298 21.8662V23.8662C271.892 23.8662 274.118 23.0118 275.91 21.2866L274.522 19.8462ZM269.298 21.8662C267.174 21.8662 265.451 21.1866 264.059 19.8462L262.672 21.2866C264.463 23.0126 266.696 23.8662 269.298 23.8662V21.8662ZM264.059 19.8462C262.67 18.5085 261.978 16.8627 261.978 14.8389H259.978C259.978 17.3854 260.877 19.5579 262.672 21.2866L264.059 19.8462ZM261.978 14.8389C261.978 12.8262 262.669 11.1847 264.059 9.84622L262.672 8.40574C260.878 10.1336 259.978 12.3008 259.978 14.8389H261.978ZM264.054 9.85053C265.457 8.51613 267.183 7.84082 269.298 7.84082V5.84082C266.706 5.84082 264.476 6.68895 262.676 8.40142L264.054 9.85053ZM269.298 7.84082C271.413 7.84082 273.132 8.51604 274.524 9.84843L275.907 8.40353C274.116 6.68904 271.89 5.84082 269.298 5.84082V7.84082ZM274.522 9.84622C275.912 11.1847 276.604 12.8262 276.604 14.8389H278.604C278.604 12.3008 277.703 10.1336 275.91 8.40574L274.522 9.84622ZM266.592 17.5462C267.314 18.2822 268.239 18.6367 269.283 18.6367V16.6367C268.726 16.6367 268.332 16.4639 268.019 16.1452L266.592 17.5462ZM269.283 18.6367C270.328 18.6367 271.253 18.2825 271.982 17.5528L270.568 16.1386C270.243 16.4636 269.84 16.6367 269.283 16.6367V18.6367ZM271.995 17.5396C272.704 16.804 273.052 15.8861 273.052 14.8535H271.052C271.052 15.403 270.882 15.8131 270.555 16.1518L271.995 17.5396ZM273.052 14.8535C273.052 13.8211 272.705 12.902 272.002 12.1593L270.549 13.5341C270.881 13.8851 271.052 14.3039 271.052 14.8535H273.052ZM271.982 12.1396C271.253 11.4099 270.328 11.0557 269.283 11.0557V13.0557C269.84 13.0557 270.243 13.2287 270.568 13.5538L271.982 12.1396ZM269.283 11.0557C268.239 11.0557 267.314 11.4102 266.592 12.1462L268.019 13.5471C268.332 13.2285 268.726 13.0557 269.283 13.0557V11.0557ZM266.579 12.1593C265.876 12.902 265.529 13.8211 265.529 14.8535H267.529C267.529 14.3039 267.7 13.8851 268.032 13.5341L266.579 12.1593ZM265.529 14.8535C265.529 15.8861 265.877 16.804 266.586 17.5396L268.026 16.1518C267.699 15.8131 267.529 15.403 267.529 14.8535H265.529ZM285.118 7.20703H286.118V6.20703H285.118V7.20703ZM285.118 8.87695H284.118V11.5672L285.875 9.53012L285.118 8.87695ZM288.927 6.95801H289.927V5.95801H288.927V6.95801ZM288.927 12.5098V13.5098H289.927V12.5098H288.927ZM286.1 13.3447L285.457 12.5783L285.452 12.5831L286.1 13.3447ZM285.118 22.5V23.5H286.118V22.5H285.118ZM279.713 22.5H278.713V23.5H279.713V22.5ZM279.713 7.20703V6.20703H278.713V7.20703H279.713ZM284.118 7.20703V8.87695H286.118V7.20703H284.118ZM285.875 9.53012C286.826 8.42806 287.834 7.95801 288.927 7.95801V5.95801C287.148 5.95801 285.617 6.76725 284.361 8.22378L285.875 9.53012ZM287.927 6.95801V12.5098H289.927V6.95801H287.927ZM288.927 11.5098C287.566 11.5098 286.363 11.8194 285.457 12.5784L286.742 14.1111C287.165 13.7568 287.846 13.5098 288.927 13.5098V11.5098ZM285.452 12.5831C284.54 13.359 284.118 14.428 284.118 15.6592H286.118C286.118 14.9177 286.351 14.4437 286.748 14.1064L285.452 12.5831ZM284.118 15.6592V22.5H286.118V15.6592H284.118ZM285.118 21.5H279.713V23.5H285.118V21.5ZM280.713 22.5V7.20703H278.713V22.5H280.713ZM279.713 8.20703H285.118V6.20703H279.713V8.20703ZM291.769 21.3428L292.402 20.5691L292.401 20.5685L291.769 21.3428ZM289.923 17.666V16.666H288.923V17.666H289.923ZM295.24 17.666H296.24V16.666H295.24V17.666ZM295.577 18.4863L294.87 19.1934L294.885 19.2088L294.901 19.2235L295.577 18.4863ZM297.174 18.6035L297.747 19.4228L297.755 19.4172L297.174 18.6035ZM295.24 16.8604L295.439 15.8802L295.43 15.8785L295.24 16.8604ZM290.128 11.8799L289.128 11.8799L289.128 11.8872L290.128 11.8799ZM300.777 8.27637L301.404 7.49732L301.397 7.49181L300.777 8.27637ZM302.579 11.792V12.792H303.579V11.792H302.579ZM297.247 11.792H296.247V12.792H297.247V11.792ZM296.969 11.1475L296.262 11.8546L296.281 11.8742L296.302 11.8927L296.969 11.1475ZM295.68 11.0742L296.28 11.8742L296.295 11.8626L296.31 11.8503L295.68 11.0742ZM297.818 12.7734L297.613 13.7521L297.614 13.7524L297.818 12.7734ZM301.07 14.0771L301.612 13.2364L301.602 13.2301L301.07 14.0771ZM300.953 21.46L301.553 22.26L301.555 22.2584L300.953 21.46ZM296.368 21.8662C294.739 21.8662 293.439 21.4182 292.402 20.5691L291.135 22.1165C292.579 23.2986 294.345 23.8662 296.368 23.8662V21.8662ZM292.401 20.5685C291.377 19.7311 290.923 18.7788 290.923 17.666H288.923C288.923 19.4438 289.699 20.9427 291.136 22.117L292.401 20.5685ZM289.923 18.666H295.24V16.666H289.923V18.666ZM294.24 17.666C294.24 18.2492 294.455 18.7782 294.87 19.1934L296.284 17.7792C296.258 17.7534 296.252 17.7383 296.249 17.7329C296.247 17.7272 296.24 17.7087 296.24 17.666H294.24ZM294.901 19.2235C295.329 19.6154 295.857 19.8086 296.427 19.8086V17.8086C296.333 17.8086 296.294 17.7869 296.253 17.7492L294.901 19.2235ZM296.427 19.8086C296.879 19.8086 297.344 19.7054 297.747 19.4227L296.6 17.7843C296.613 17.7751 296.58 17.8086 296.427 17.8086V19.8086ZM297.755 19.4172C298.138 19.1434 298.481 18.7005 298.481 18.0908H296.481C296.481 18.0034 296.507 17.9176 296.547 17.851C296.582 17.7921 296.612 17.7759 296.593 17.7898L297.755 19.4172ZM298.481 18.0908C298.481 17.2723 297.878 16.7795 297.402 16.5184C296.897 16.2408 296.22 16.0385 295.439 15.8803L295.042 17.8404C295.755 17.9849 296.198 18.1391 296.44 18.2716C296.711 18.4207 296.481 18.3917 296.481 18.0908H298.481ZM295.43 15.8785C293.845 15.5725 292.781 15.0536 292.118 14.4082C291.482 13.7879 291.136 12.9737 291.128 11.8726L289.128 11.8872C289.139 13.4521 289.656 14.801 290.723 15.8408C291.764 16.8556 293.247 17.4939 295.051 17.8422L295.43 15.8785ZM291.128 11.8799C291.128 10.5689 291.598 9.64069 292.52 8.96621L291.339 7.35215C289.859 8.43548 289.128 9.9877 289.128 11.8799H291.128ZM292.52 8.96621C293.524 8.23143 294.769 7.84082 296.31 7.84082V5.84082C294.413 5.84082 292.737 6.32912 291.339 7.35215L292.52 8.96621ZM296.31 7.84082C297.886 7.84082 299.148 8.26331 300.157 9.06093L301.397 7.49181C299.985 6.37536 298.268 5.84082 296.31 5.84082V7.84082ZM300.15 9.05538C301.148 9.85813 301.579 10.7566 301.579 11.792H303.579C303.579 10.0734 302.809 8.62819 301.404 7.49736L300.15 9.05538ZM302.579 10.792H297.247V12.792H302.579V10.792ZM298.247 11.792C298.247 11.2628 298.047 10.7702 297.636 10.4022L296.302 11.8927C296.299 11.8901 296.292 11.8831 296.283 11.8711C296.274 11.859 296.266 11.8448 296.259 11.8295C296.245 11.7969 296.247 11.7792 296.247 11.792H298.247ZM297.676 10.4404C297.286 10.0504 296.789 9.88379 296.28 9.88379V11.8838C296.318 11.8838 296.323 11.8895 296.307 11.8836C296.3 11.8808 296.291 11.8764 296.281 11.8703C296.272 11.8643 296.266 11.8584 296.262 11.8546L297.676 10.4404ZM296.28 9.88379C295.857 9.88379 295.419 9.99736 295.049 10.2981L296.31 11.8503C296.3 11.8591 296.288 11.8667 296.276 11.8729C296.265 11.8791 296.255 11.8827 296.249 11.8846C296.237 11.8884 296.244 11.8838 296.28 11.8838V9.88379ZM295.08 10.2742C294.704 10.5561 294.445 10.9849 294.445 11.5137H296.445C296.445 11.58 296.429 11.6624 296.386 11.7426C296.345 11.8193 296.298 11.8604 296.28 11.8742L295.08 10.2742ZM294.445 11.5137C294.445 12.3576 295.103 12.8452 295.57 13.0927C296.089 13.3687 296.791 13.5797 297.613 13.7521L298.024 11.7948C297.263 11.6352 296.779 11.4702 296.507 11.3262C296.183 11.1538 296.445 11.1776 296.445 11.5137H294.445ZM297.614 13.7524C298.672 13.9728 299.645 14.3634 300.539 14.9242L301.602 13.2301C300.503 12.5409 299.308 12.0624 298.022 11.7945L297.614 13.7524ZM300.529 14.9179C301.341 15.4413 301.799 16.2666 301.799 17.6074H303.799C303.799 15.7256 303.104 14.1974 301.612 13.2364L300.529 14.9179ZM301.799 17.6074C301.799 18.9578 301.313 19.9365 300.351 20.6615L301.555 22.2584C303.055 21.128 303.799 19.5383 303.799 17.6074H301.799ZM300.353 20.66C299.302 21.448 297.994 21.8662 296.368 21.8662V23.8662C298.356 23.8662 300.104 23.3469 301.553 22.26L300.353 20.66Z" fill="black" mask="url(#path-1-outside-1_9_594)"/>
</g>
<defs>
<filter id="filter0_d_9_594" x="0.717773" y="0.893555" width="306.081" height="35.3047" filterUnits="userSpaceOnUse" color-interpolation-filters="sRGB">
<feFlood flood-opacity="0" result="BackgroundImageFix"/>
<feColorMatrix in="SourceAlpha" type="matrix" values="0 0 0 0 0 0 0 0 0 0 0 0 0 0 0 0 0 0 127 0" result="hardAlpha"/>
<feOffset dy="4"/>
<feGaussianBlur stdDeviation="2"/>
<feComposite in2="hardAlpha" operator="out"/>
<feColorMatrix type="matrix" values="0 0 0 0 0 0 0 0 0 0 0 0 0 0 0 0 0 0 0.25 0"/>
<feBlend mode="normal" in2="BackgroundImageFix" result="effect1_dropShadow_9_594"/>
<feBlend mode="normal" in="SourceGraphic" in2="effect1_dropShadow_9_594" result="shape"/>
</filter>
</defs>
</svg>
